<?xml version="1.0" encoding="UTF-8"?>
<!DOCTYPE svg PUBLIC "-//W3C//DTD SVG 1.1//EN" "http://www.w3.org/Graphics/SVG/1.1/DTD/svg11.dtd">
<!-- Creator: CorelDRAW 2019 (64-Bit) -->
<svg xmlns="http://www.w3.org/2000/svg" xml:space="preserve" width="400px" height="480px" version="1.1" style="shape-rendering:geometricPrecision; text-rendering:geometricPrecision; image-rendering:optimizeQuality; fill-rule:evenodd; clip-rule:evenodd"
viewBox="0 0 400 480.29"
 xmlns:xlink="http://www.w3.org/1999/xlink"
 xmlns:xodm="http://www.corel.com/coreldraw/odm/2003">
 <defs>
  <style type="text/css">
   <![CDATA[
    .fil4 {fill:#FEFEFE}
    .fil2 {fill:black}
    .fil1 {fill:#00A54F}
    .fil6 {fill:#41CAF5}
    .fil0 {fill:#F1EC0C}
    .fil7 {fill:#332C2B;fill-rule:nonzero}
    .fil3 {fill:black;fill-rule:nonzero}
    .fil5 {fill:#41CAF5;fill-rule:nonzero}
   ]]>
  </style>
 </defs>
 <g id="Layer_x0020_1">
  <metadata id="CorelCorpID_0Corel-Layer"/>
  <g id="_1899042315696">
   <path class="fil0" d="M7.5 9.01l385 0 0 314.82c0,8.71 -44.29,148.96 -192.5,148.96 -148.21,0 -192.5,-140.25 -192.5,-148.96l0 -314.82zm374.12 68.07l0 243.55c0,8.26 -41.79,141.24 -181.62,141.24 -139.83,0 -181.62,-132.98 -181.62,-141.24l0 -243.55 363.24 0z"/>
   <path class="fil1" d="M0 0l400 0 0 326.03c0,9.02 -46.02,154.26 -200,154.26 -153.98,0 -200,-145.24 -200,-154.26l0 -326.03zm7.5 9.01l385 0 0 314.82c0,8.71 -44.29,148.96 -192.5,148.96 -148.21,0 -192.5,-140.25 -192.5,-148.96l0 -314.82z"/>
   <path class="fil1" d="M381.62 77.08l0 243.55c0,8.26 -41.79,141.24 -181.62,141.24 -139.83,0 -181.62,-132.98 -181.62,-141.24l0 -243.55 363.24 0z"/>
   <path class="fil0" d="M228.96 205.14c-1.8,-0.68 -3.11,-1.6 -3.69,-2.89 -1.87,-4.14 0.63,-5.97 7.26,-5.38 4.87,3.62 13.12,6.85 24.73,9.68 9.31,1.01 19.28,0.65 29.85,1.34 7.89,0.52 15.83,5.74 23.93,13.45 3.08,2.93 6.01,8.01 9.95,14.52 3.2,5.28 7.15,9.71 10.49,14.25 2.04,2.78 2.83,7.72 2.95,14.52 0.31,16.31 0.54,24.47 0.54,24.47 -0.85,26.48 -15.54,46.04 -44.63,57.27 -4.12,1.59 -8.3,1.75 -12.1,1.88 -2.33,-6.46 -6.54,-9.15 -12.64,-8.06 11.91,6.78 14.39,12.45 8.34,18.01 -5.14,4.72 -11.57,6.51 -20.17,7.26 -4.25,0.37 -3.8,4.28 1.61,4.57 10.55,0.57 16.18,-0.17 16.94,2.15 -2.32,0.24 -3.67,0.78 -4.03,1.62 2.29,0.21 4.15,1.13 5.58,2.75 -2.72,0.12 -4.51,0.39 -5.38,0.81 1.63,1.75 2.22,3.41 1.75,4.97 -36.16,5.47 -46.64,0.05 -31.46,-16.26 3.27,-3.35 8.2,-6.39 14.79,-9.15 -18.88,1.37 -32.05,-1 -39.53,-7.12 -15.68,-0.04 -29.69,-2.39 -42.01,-7.06 -5.67,-2.09 -10.25,-4.24 -13.72,-6.45 -5.26,-3.59 -17.69,-3 -37.1,2.42 -16.51,4.6 -28.55,16.29 -36.3,34.41 -1.26,-14.74 0.89,-23.61 6.45,-26.62 -0.18,-4.84 -0.27,-7.26 -0.27,-7.26 3.23,0 4.84,0 4.84,0 1.08,-4.3 1.61,-6.45 1.61,-6.45 4.67,-0.18 6.99,-0.27 6.99,-0.27 1.44,-6.09 2.16,-9.14 2.16,-9.14 4.12,0.18 6.18,0.27 6.18,0.27 3.23,-4.66 4.84,-6.99 4.84,-6.99 7.53,0.36 11.29,0.54 11.29,0.54 3.59,-4.13 5.38,-6.19 5.38,-6.19 10.4,0.9 15.6,1.35 15.6,1.35 3.94,-3.41 5.91,-5.11 5.91,-5.11 7.17,3.04 10.76,4.57 10.76,4.57 21.38,-4.91 43.79,-3.12 67.22,5.38 2.48,0.27 4.08,-0.62 5.65,-1.62 4.68,-2.99 11.46,-3.36 19.36,-1.07 1.76,0.51 2.59,-0.19 4.23,-2.49 2.8,-3.91 7.44,-5.88 12.77,-6.86 12.64,-8.84 17.88,-18.7 15.73,-29.58 -4.36,12.6 -9.29,15.66 -15.32,9.69 -4.45,-4.41 -6.48,-8.99 -5.85,-14.32 0.42,-3.58 -1.73,-5.08 -6.19,-5.11 -4.35,-0.03 -7.48,-2.75 -9.41,-7.53 1.18,-0.71 2.55,-0.82 4.1,-0.34 -0.53,-1.14 -1.51,-1.85 -2.95,-2.15 2.07,-0.65 4.49,-0.52 7.26,0.41 -1.11,-0.99 -2.19,-1.7 -3.23,-2.16 2.85,-0.29 5.19,0.11 6.99,1.21 -0.59,-1.04 -1.35,-1.72 -2.28,-2.01 3.46,-0.48 5.84,0.59 7.12,3.22 5.62,4.85 7.81,10.65 7.53,17.48 -0.14,3.32 2.1,1.68 2.69,-5.38 0.85,-10.26 3.9,-15.76 12.23,-16.4 -6.62,-3.95 -9.36,-8.29 -8.2,-13.04 -8.32,3.7 -15.94,4.79 -20.3,0.27 -2.79,-2.9 -13.26,-7.37 -34.69,-11.16 -5.89,-1.53 -6.65,-4.57 -2.28,-9.14 1.25,1.25 1.88,1.88 1.88,1.88 1.79,-0.54 2.69,-0.81 2.69,-0.81 1.07,1.26 1.61,1.89 1.61,1.89 2.69,-0.9 4.04,-1.35 4.04,-1.35 0.98,1.44 1.48,2.15 1.48,2.15 2.06,-0.8 3.09,-1.21 3.09,-1.21 1.34,1.8 2.01,2.69 2.01,2.69 2.42,-0.98 3.63,-1.48 3.63,-1.48 0.54,1.26 0.81,1.88 0.81,1.88 2.87,-0.08 4.3,-0.13 4.3,-0.13 0.81,1.26 1.21,1.88 1.21,1.88 1.98,-0.45 2.96,-0.67 2.96,-0.67 1.97,1.97 2.96,2.96 2.96,2.96 6.18,2.36 7.75,0.48 4.7,-5.65 -1.7,-0.45 -2.55,-0.67 -2.55,-0.67 -0.27,-1.61 -0.4,-2.42 -0.4,-2.42 -2.6,0.63 -3.9,0.94 -3.9,0.94 -0.27,-1.88 -0.41,-2.82 -0.41,-2.82 -2.15,0.71 -3.22,1.07 -3.22,1.07 -0.81,-1.88 -1.21,-2.82 -1.21,-2.82 -2.42,0.45 -3.63,0.67 -3.63,0.67 -1.26,-1.88 -1.88,-2.82 -1.88,-2.82 -3.23,0.54 -4.85,0.8 -4.85,0.8 -0.8,-1.97 -1.21,-2.95 -1.21,-2.95 -3.13,-0.18 -4.7,-0.27 -4.7,-0.27 -0.54,-1.61 -0.81,-2.42 -0.81,-2.42 -2.78,0.45 -4.16,0.67 -4.16,0.67 -0.54,-2.06 -0.81,-3.09 -0.81,-3.09 -2.06,0.63 -3.09,0.94 -3.09,0.94 -0.27,-1.88 -0.41,-2.82 -0.41,-2.82z"/>
   <path class="fil2" d="M278.26 213.22c1.97,0.85 3.16,2.5 2.65,3.69 -0.52,1.18 -2.53,1.45 -4.5,0.6 -1.97,-0.85 -3.16,-2.51 -2.64,-3.69 0.51,-1.18 2.52,-1.45 4.49,-0.6z"/>
   <polygon class="fil3" points="97.97,339 97.97,339 98.56,337.67 99.02,336.62 100.17,336.78 104.48,337.4 107.9,329.88 108.31,328.98 109.29,328.98 118.89,328.98 122.73,321.99 123.31,320.96 124.45,321.25 135.57,324.12 141.95,316.32 142.74,315.35 143.85,315.94 155.63,322.2 167.01,317.06 167.92,316.65 168.66,317.31 179.56,327.09 215.42,330.15 215.42,330.15 225.04,330.97 233.58,333.23 224.78,334.02 215.16,333.2 215.16,333.19 178.79,330.08 178.28,330.04 177.9,329.7 167.36,320.25 156.21,325.28 155.52,325.59 154.86,325.24 143.52,319.22 137.31,326.81 136.69,327.56 135.75,327.32 124.84,324.5 121.13,331.24 120.69,332.03 119.79,332.03 110.27,332.03 106.79,339.7 106.31,340.74 105.18,340.58 100.88,339.96 100.76,340.23 100.77,340.23 96.88,349.07 91.98,356.41 94.08,347.83 "/>
   <path class="fil3" d="M215.62 344.95c-0.54,0.15 -1.1,-0.17 -1.25,-0.71 -0.15,-0.54 0.17,-1.09 0.71,-1.25 5.21,-1.47 9.85,-1.55 13.92,-0.23 4.1,1.33 7.58,4.06 10.45,8.19 0.32,0.46 0.2,1.09 -0.26,1.41 -0.46,0.32 -1.09,0.21 -1.41,-0.25 -2.61,-3.76 -5.74,-6.23 -9.4,-7.42 -3.68,-1.2 -7.94,-1.11 -12.76,0.26z"/>
   <path class="fil3" d="M236.39 334.01c-0.55,0.08 -1.07,-0.3 -1.15,-0.85 -0.09,-0.56 0.3,-1.08 0.85,-1.16 2.83,-0.43 5.14,-0.14 6.92,0.86 1.83,1.04 3.07,2.78 3.7,5.23 0.13,0.54 -0.19,1.09 -0.74,1.23 -0.54,0.14 -1.09,-0.19 -1.23,-0.73 -0.48,-1.89 -1.39,-3.21 -2.72,-3.95 -1.38,-0.78 -3.25,-0.99 -5.63,-0.63z"/>
   <path class="fil3" d="M230.22 324.06c-0.54,-0.13 -0.88,-0.68 -0.74,-1.22 0.13,-0.55 0.68,-0.88 1.22,-0.75 6.94,1.72 12.48,2.35 16.64,1.89 3.92,-0.43 6.55,-1.83 7.87,-4.21 0.27,-0.49 0.89,-0.66 1.38,-0.39 0.49,0.27 0.66,0.89 0.39,1.37 -1.67,2.99 -4.81,4.74 -9.43,5.25 -4.39,0.48 -10.17,-0.16 -17.33,-1.94z"/>
   <path class="fil3" d="M250.13 339.65c-0.55,-0.11 -0.91,-0.64 -0.8,-1.19 0.1,-0.55 0.63,-0.91 1.18,-0.81 4.34,0.84 8.28,1.09 11.84,0.76 3.51,-0.32 6.65,-1.21 9.42,-2.67 0.49,-0.26 1.1,-0.07 1.37,0.42 0.26,0.5 0.06,1.11 -0.43,1.37 -3,1.58 -6.39,2.55 -10.18,2.9 -3.75,0.34 -7.89,0.08 -12.4,-0.78z"/>
   <path class="fil3" d="M252.06 332.78c-0.55,-0.09 -0.93,-0.61 -0.84,-1.16 0.09,-0.55 0.61,-0.93 1.16,-0.84 2.59,0.43 4.98,0.31 7.18,-0.36 2.2,-0.67 4.22,-1.89 6.08,-3.67 0.4,-0.39 1.04,-0.37 1.43,0.03 0.39,0.4 0.37,1.04 -0.03,1.43 -2.08,2 -4.38,3.38 -6.89,4.15 -2.51,0.76 -5.2,0.9 -8.09,0.42z"/>
   <path class="fil3" d="M277.23 335.8c-0.52,-0.22 -0.75,-0.82 -0.53,-1.33 0.23,-0.51 0.82,-0.75 1.34,-0.52 0.64,0.28 1.25,0.49 1.8,0.62 1,0.24 1.81,0.22 2.44,-0.06 0.59,-0.26 1.05,-0.78 1.39,-1.56 0.15,-0.32 0.27,-0.7 0.37,-1.13 0.12,-0.54 0.67,-0.88 1.22,-0.76 0.54,0.13 0.88,0.68 0.75,1.22 -0.12,0.54 -0.28,1.03 -0.48,1.48 -0.55,1.27 -1.37,2.14 -2.44,2.61 -1.04,0.46 -2.27,0.52 -3.71,0.18 -0.66,-0.16 -1.38,-0.41 -2.15,-0.75z"/>
   <path class="fil3" d="M288.94 328.73c-0.54,-0.14 -0.86,-0.69 -0.73,-1.23 0.14,-0.54 0.69,-0.87 1.23,-0.73 2.45,0.63 4.3,0.68 5.58,0.16 1.12,-0.46 1.81,-1.45 2.05,-2.97 0.09,-0.55 0.6,-0.93 1.16,-0.84 0.55,0.09 0.93,0.61 0.84,1.16 -0.36,2.27 -1.46,3.77 -3.29,4.52 -1.69,0.69 -3.96,0.67 -6.84,-0.07z"/>
   <path class="fil3" d="M302.97 318.79c-0.55,-0.11 -0.9,-0.65 -0.79,-1.2 0.12,-0.55 0.66,-0.9 1.21,-0.78 1.37,0.29 2.47,0.35 3.3,0.17 0.49,-0.11 0.88,-0.3 1.15,-0.57 0.27,-0.27 0.46,-0.65 0.57,-1.13 0.17,-0.81 0.11,-1.86 -0.18,-3.18 -0.11,-0.55 0.23,-1.09 0.78,-1.21 0.55,-0.12 1.09,0.23 1.21,0.78 0.35,1.6 0.4,2.94 0.17,4.03 -0.19,0.87 -0.56,1.59 -1.12,2.15 -0.56,0.55 -1.27,0.92 -2.15,1.11 -1.11,0.25 -2.5,0.19 -4.15,-0.17z"/>
   <path class="fil3" d="M314.82 308.19c-0.56,0.05 -1.05,-0.37 -1.09,-0.93 -0.05,-0.56 0.37,-1.05 0.93,-1.09 0.64,-0.06 1.22,-0.15 1.73,-0.29 1.1,-0.29 1.89,-0.77 2.36,-1.43 0.47,-0.67 0.66,-1.57 0.56,-2.7 -0.04,-0.53 -0.15,-1.1 -0.31,-1.71 -0.14,-0.54 0.18,-1.09 0.72,-1.23 0.55,-0.15 1.1,0.18 1.24,0.72 0.2,0.73 0.32,1.42 0.38,2.05 0.13,1.62 -0.18,2.97 -0.93,4.03 -0.76,1.07 -1.93,1.82 -3.5,2.23 -0.64,0.17 -1.33,0.29 -2.09,0.35z"/>
   <path class="fil3" d="M324.39 290.62c-0.5,-0.24 -0.72,-0.84 -0.49,-1.35 0.24,-0.5 0.84,-0.72 1.35,-0.48 2.01,0.94 2.86,2.14 2.55,3.61 -0.27,1.22 -1.49,2.49 -3.66,3.81 -0.48,0.29 -1.1,0.14 -1.39,-0.34 -0.29,-0.47 -0.14,-1.1 0.34,-1.39 1.67,-1.01 2.58,-1.85 2.72,-2.51 0.09,-0.41 -0.38,-0.87 -1.42,-1.35z"/>
   <path class="fil3" d="M325.47 277c-0.41,-0.39 -0.43,-1.03 -0.04,-1.44 0.38,-0.4 1.02,-0.42 1.43,-0.04 1.93,1.82 2.86,3.44 2.77,4.85 -0.1,1.56 -1.28,2.71 -3.56,3.44 -0.53,0.17 -1.1,-0.12 -1.27,-0.65 -0.17,-0.54 0.12,-1.11 0.65,-1.28 1.4,-0.45 2.12,-0.99 2.15,-1.63 0.05,-0.78 -0.66,-1.87 -2.13,-3.25z"/>
   <path class="fil3" d="M325.48 266.08c-0.47,-0.3 -0.6,-0.93 -0.3,-1.4 0.31,-0.47 0.93,-0.6 1.4,-0.3 2.26,1.47 3.35,2.91 3.29,4.32 -0.06,1.47 -1.31,2.69 -3.73,3.66 -0.52,0.21 -1.11,-0.05 -1.32,-0.57 -0.21,-0.52 0.05,-1.1 0.57,-1.31 1.61,-0.65 2.43,-1.27 2.46,-1.87 0.03,-0.64 -0.76,-1.48 -2.37,-2.53z"/>
   <path class="fil3" d="M323.74 253.85c-0.47,-0.3 -0.61,-0.92 -0.31,-1.4 0.3,-0.47 0.93,-0.61 1.4,-0.31 0.82,0.53 1.51,1.07 2.04,1.61 0.84,0.85 1.34,1.74 1.5,2.66 0.16,0.96 -0.06,1.91 -0.66,2.85 -0.25,0.4 -0.58,0.8 -0.97,1.18 -0.4,0.4 -1.04,0.39 -1.43,-0.01 -0.39,-0.4 -0.39,-1.04 0.01,-1.43 0.29,-0.29 0.52,-0.56 0.69,-0.83 0.31,-0.49 0.44,-0.97 0.36,-1.43 -0.09,-0.49 -0.4,-1.02 -0.95,-1.57 -0.43,-0.44 -0.99,-0.88 -1.68,-1.32z"/>
   <path class="fil3" d="M318.31 242.56c-0.55,-0.11 -0.91,-0.64 -0.8,-1.19 0.11,-0.55 0.64,-0.9 1.19,-0.79 3.41,0.69 4.7,2.67 3.88,5.94 -0.14,0.55 -0.69,0.88 -1.23,0.74 -0.54,-0.13 -0.88,-0.69 -0.74,-1.23 0.48,-1.9 -0.29,-3.06 -2.3,-3.47z"/>
   <path class="fil3" d="M311.11 242.84c-0.55,-0.07 -0.94,-0.58 -0.87,-1.13 0.07,-0.56 0.58,-0.95 1.13,-0.87 4.93,0.65 6.2,2.74 3.8,6.27 -0.31,0.47 -0.94,0.59 -1.4,0.27 -0.47,-0.31 -0.59,-0.94 -0.27,-1.4 1.17,-1.72 0.37,-2.77 -2.39,-3.14z"/>
   <path class="fil3" d="M304.73 242.7c-0.55,-0.11 -0.91,-0.64 -0.8,-1.19 0.1,-0.55 0.64,-0.91 1.19,-0.8 1.16,0.23 2.08,0.54 2.76,0.95 0.79,0.47 1.29,1.05 1.51,1.76 0.22,0.71 0.13,1.48 -0.25,2.3 -0.34,0.73 -0.92,1.51 -1.75,2.34 -0.39,0.4 -1.03,0.41 -1.43,0.01 -0.4,-0.39 -0.4,-1.03 -0.01,-1.43 0.66,-0.67 1.11,-1.26 1.35,-1.77 0.17,-0.35 0.22,-0.64 0.15,-0.85 -0.06,-0.21 -0.26,-0.41 -0.6,-0.61 -0.48,-0.29 -1.19,-0.52 -2.12,-0.71z"/>
   <path class="fil3" d="M316.48 254.26c-0.47,-0.3 -0.61,-0.93 -0.31,-1.4 0.3,-0.47 0.93,-0.61 1.4,-0.31 2.25,1.44 3.43,2.89 3.55,4.37l0 0c0.13,1.57 -0.89,2.97 -3.05,4.22 -0.49,0.27 -1.11,0.11 -1.39,-0.38 -0.27,-0.48 -0.11,-1.1 0.38,-1.38 1.41,-0.81 2.09,-1.58 2.04,-2.3l0 0 0 0c-0.07,-0.81 -0.94,-1.75 -2.62,-2.82z"/>
   <path class="fil3" d="M307.9 252.66c-0.48,-0.29 -0.64,-0.91 -0.35,-1.39 0.29,-0.48 0.91,-0.64 1.39,-0.35 3.55,2.12 3.87,4.5 0.97,7.13 -0.42,0.38 -1.06,0.34 -1.43,-0.07 -0.38,-0.41 -0.35,-1.05 0.07,-1.43 1.55,-1.41 1.33,-2.7 -0.65,-3.89z"/>
   <path class="fil3" d="M300.04 256.78c-0.3,-0.47 -0.17,-1.09 0.3,-1.4 0.46,-0.31 1.09,-0.18 1.4,0.29 1.69,2.58 2.31,5.08 1.86,7.52 -0.45,2.41 -1.94,4.7 -4.47,6.85 -0.43,0.36 -1.07,0.31 -1.43,-0.12 -0.36,-0.43 -0.31,-1.07 0.12,-1.43 2.17,-1.84 3.43,-3.73 3.79,-5.66 0.35,-1.91 -0.17,-3.93 -1.57,-6.05z"/>
   <path class="fil3" d="M308.9 263.05c-0.49,-0.26 -0.7,-0.87 -0.44,-1.37 0.25,-0.5 0.86,-0.7 1.36,-0.44 1.95,0.98 2.94,2.15 2.98,3.49 0.03,1.31 -0.88,2.61 -2.73,3.89 -0.45,0.32 -1.09,0.21 -1.41,-0.25 -0.32,-0.46 -0.2,-1.1 0.26,-1.42 1.25,-0.87 1.87,-1.59 1.85,-2.17 -0.01,-0.53 -0.63,-1.11 -1.87,-1.73z"/>
   <path class="fil3" d="M316.91 265.47c-0.43,-0.36 -0.48,-1 -0.12,-1.43 0.36,-0.43 1,-0.48 1.43,-0.12 1.21,1.03 2.04,2.01 2.5,2.96 0.34,0.72 0.48,1.42 0.4,2.1 -0.07,0.7 -0.37,1.35 -0.87,1.95 -0.57,0.67 -1.4,1.27 -2.52,1.8 -0.5,0.25 -1.11,0.04 -1.35,-0.47 -0.24,-0.5 -0.03,-1.11 0.47,-1.35 0.85,-0.41 1.47,-0.84 1.85,-1.29 0.24,-0.28 0.38,-0.57 0.41,-0.86 0.03,-0.3 -0.04,-0.63 -0.22,-1 -0.33,-0.69 -0.99,-1.45 -1.98,-2.29z"/>
   <path class="fil0" d="M334.46 266.17c2.34,2.92 4.46,3.91 6.36,2.96 5.55,-2.63 5.59,-6.44 0.14,-11.43 -1.9,-2.62 -2.53,-6.61 -1.89,-11.96 0.52,-5.92 -4.36,-7.53 -14.65,-4.81 2.36,3.2 4.85,6.17 7.06,9.18 2.04,2.78 2.83,7.72 2.95,14.52l0.03 1.54z"/>
   <path class="fil3" d="M307.78 272.42c-0.25,-0.5 -0.05,-1.12 0.45,-1.37 0.5,-0.25 1.11,-0.06 1.36,0.44 0.06,0.11 0.12,0.25 0.19,0.4 0.72,1.55 0.92,2.92 0.6,4.11 -0.34,1.24 -1.21,2.22 -2.61,2.93 -0.02,0.01 -0.04,0.02 -0.06,0.03 -0.07,0.04 -0.14,0.07 -0.21,0.1 -0.51,0.24 -1.11,0.01 -1.35,-0.5 -0.23,-0.5 -0.01,-1.11 0.5,-1.34 0.05,-0.03 0.1,-0.05 0.15,-0.07l0.05 -0.03c0.86,-0.44 1.39,-0.99 1.57,-1.65 0.19,-0.72 0.03,-1.63 -0.48,-2.73 -0.04,-0.09 -0.09,-0.19 -0.16,-0.32z"/>
   <path class="fil3" d="M316.85 277.23c-0.46,-0.32 -0.57,-0.95 -0.26,-1.41 0.32,-0.46 0.95,-0.58 1.41,-0.26 1.74,1.19 2.39,2.48 1.94,3.86 -0.38,1.17 -1.66,2.26 -3.84,3.27 -0.5,0.24 -1.11,0.01 -1.34,-0.5 -0.24,-0.5 -0.01,-1.11 0.49,-1.34 1.64,-0.76 2.56,-1.45 2.76,-2.06 0.14,-0.42 -0.25,-0.94 -1.16,-1.56z"/>
   <path class="fil3" d="M312.36 287.09c-0.49,-0.28 -0.66,-0.9 -0.38,-1.38 0.27,-0.49 0.89,-0.66 1.38,-0.38 1.57,0.89 2.16,1.98 1.74,3.27 -0.33,1.01 -1.4,2.03 -3.23,3.06 -0.48,0.27 -1.1,0.1 -1.37,-0.39 -0.28,-0.48 -0.1,-1.1 0.38,-1.37 1.36,-0.77 2.13,-1.41 2.29,-1.92 0.08,-0.24 -0.19,-0.54 -0.81,-0.89z"/>
   <path class="fil3" d="M307.81 294.22c0.03,-0.56 0.51,-0.99 1.07,-0.96 0.55,0.03 0.98,0.51 0.96,1.06 -0.08,1.51 -0.54,2.86 -1.36,4.05 -0.81,1.15 -1.96,2.15 -3.47,2.98 -0.49,0.27 -1.11,0.09 -1.38,-0.4 -0.27,-0.5 -0.09,-1.11 0.4,-1.38 1.23,-0.67 2.15,-1.46 2.78,-2.36 0.61,-0.88 0.94,-1.87 1,-2.99z"/>
   <path class="fil3" d="M300.76 304.09c0.22,-0.51 0.82,-0.75 1.33,-0.53 0.52,0.22 0.76,0.81 0.54,1.33 -0.85,1.97 -1.83,3.4 -2.96,4.27 -1.24,0.96 -2.62,1.25 -4.13,0.89 -0.54,-0.13 -0.87,-0.68 -0.74,-1.23 0.13,-0.54 0.68,-0.87 1.22,-0.74 0.88,0.21 1.68,0.04 2.41,-0.53 0.85,-0.65 1.63,-1.8 2.33,-3.46z"/>
   <path class="fil3" d="M289.48 313.88c0.24,-0.51 0.84,-0.73 1.35,-0.49 0.51,0.23 0.73,0.83 0.5,1.34 -0.73,1.56 -1.67,2.71 -2.85,3.47 -1.19,0.77 -2.58,1.1 -4.18,1.02 -0.56,-0.03 -0.99,-0.51 -0.96,-1.07 0.03,-0.56 0.51,-0.99 1.07,-0.96 1.16,0.07 2.15,-0.17 2.98,-0.7 0.84,-0.54 1.54,-1.41 2.09,-2.61z"/>
   <path class="fil3" d="M278.12 321.69c0.3,-0.47 0.93,-0.61 1.4,-0.31 0.47,0.31 0.61,0.93 0.31,1.4 -0.76,1.19 -1.72,2.09 -2.9,2.69 -1.15,0.59 -2.49,0.88 -4.01,0.87 -0.56,0 -1.01,-0.45 -1.01,-1.01 0.01,-0.56 0.46,-1.01 1.02,-1.01 1.19,0 2.22,-0.21 3.08,-0.65 0.85,-0.44 1.55,-1.09 2.11,-1.98z"/>
   <path class="fil3" d="M303.26 283.3c-0.11,-0.55 0.26,-1.08 0.81,-1.18 0.55,-0.1 1.08,0.26 1.18,0.81 0.3,1.63 0.14,2.96 -0.48,3.99 -0.65,1.07 -1.75,1.74 -3.29,2.03 -0.55,0.1 -1.08,-0.26 -1.18,-0.81 -0.11,-0.55 0.26,-1.08 0.81,-1.18 0.95,-0.18 1.59,-0.54 1.92,-1.09 0.36,-0.59 0.44,-1.45 0.23,-2.57z"/>
   <path class="fil3" d="M297.95 292.25c0.23,-0.51 0.83,-0.74 1.34,-0.51 0.51,0.22 0.74,0.82 0.51,1.33 -0.82,1.84 -1.71,3.26 -2.66,4.26 -1.04,1.1 -2.18,1.71 -3.4,1.85 -0.55,0.06 -1.06,-0.34 -1.12,-0.9 -0.06,-0.55 0.34,-1.05 0.9,-1.12 0.73,-0.08 1.45,-0.49 2.15,-1.23 0.8,-0.83 1.56,-2.06 2.28,-3.68z"/>
   <path class="fil3" d="M289.92 299.51c0.37,-0.42 1.02,-0.45 1.43,-0.07 0.42,0.37 0.45,1.01 0.08,1.43 -1.16,1.28 -2.16,2.26 -3,2.93 -0.96,0.77 -1.78,1.16 -2.45,1.17 -0.56,0 -1.02,-0.45 -1.02,-1.01 -0.01,-0.56 0.44,-1.01 1,-1.02 0.21,0 0.61,-0.24 1.21,-0.72 0.73,-0.59 1.65,-1.49 2.75,-2.71z"/>
   <path class="fil3" d="M283.19 306.33c0.54,-0.13 1.09,0.21 1.21,0.76 0.13,0.54 -0.21,1.09 -0.76,1.21 -2.58,0.6 -3.98,1.54 -4.2,2.81 -0.09,0.56 -0.62,0.93 -1.17,0.83 -0.55,-0.09 -0.93,-0.61 -0.83,-1.17 0.37,-2.16 2.28,-3.64 5.75,-4.44z"/>
   <path class="fil3" d="M272.64 312.71c0.52,-0.23 1.12,0 1.35,0.51 0.23,0.51 0,1.11 -0.51,1.34 -1.48,0.67 -2.65,1.39 -3.52,2.15 -0.8,0.71 -1.33,1.45 -1.58,2.22 -0.18,0.53 -0.75,0.82 -1.28,0.64 -0.54,-0.17 -0.83,-0.75 -0.65,-1.28 0.37,-1.12 1.09,-2.15 2.17,-3.1 1.02,-0.9 2.36,-1.72 4.02,-2.48z"/>
   <path class="fil3" d="M282.39 225.34c-0.53,-0.18 -0.82,-0.75 -0.64,-1.28 0.18,-0.53 0.75,-0.82 1.28,-0.64 2.81,0.94 5.28,1.2 7.42,0.78 1.13,-0.22 2.17,-0.63 3.13,-1.24 0.65,-0.72 1.44,-1.41 2.37,-2.08 0.37,-0.3 0.92,-0.3 1.3,0.03 0.42,0.37 0.47,1.01 0.1,1.43 -0.75,0.87 -1.56,1.59 -2.44,2.18 -0.45,0.53 -0.8,1.08 -1.04,1.63 -0.53,1.21 -0.56,2.49 -0.11,3.85 0.18,0.53 -0.11,1.11 -0.64,1.29 -0.53,0.17 -1.1,-0.11 -1.28,-0.64 -0.55,-1.63 -0.57,-3.19 -0.07,-4.68 -0.31,0.09 -0.62,0.16 -0.94,0.22 -2.48,0.49 -5.3,0.2 -8.44,-0.85z"/>
   <path class="fil3" d="M302.13 225.4c-0.21,-0.52 0.04,-1.11 0.55,-1.33 0.52,-0.21 1.11,0.04 1.33,0.56 0.49,1.2 0.78,2.32 0.86,3.35 0.09,1.09 -0.05,2.08 -0.41,2.99 -0.21,0.52 -0.8,0.77 -1.32,0.57 -0.52,-0.21 -0.77,-0.8 -0.56,-1.32 0.24,-0.61 0.33,-1.3 0.27,-2.08 -0.07,-0.83 -0.31,-1.74 -0.72,-2.74z"/>
   <path class="fil3" d="M301.96 233.36c0.32,-0.47 0.95,-0.59 1.41,-0.27 0.46,0.32 0.58,0.95 0.27,1.41 -0.68,0.99 -1.59,1.75 -2.72,2.26 -1.08,0.49 -2.37,0.76 -3.86,0.79 -0.56,0.01 -1.03,-0.43 -1.04,-0.99 -0.01,-0.55 0.43,-1.02 0.99,-1.03 1.21,-0.03 2.23,-0.24 3.07,-0.62 0.79,-0.35 1.42,-0.87 1.88,-1.55z"/>
   <path class="fil3" d="M335.47 265.81c0.98,1.18 1.9,1.97 2.76,2.37l0.05 0.02c0.75,0.34 1.45,0.34 2.09,0.02l0.02 0 0 0c1.2,-0.58 2.11,-1.19 2.71,-1.86 0.51,-0.56 0.8,-1.15 0.88,-1.77 0.08,-0.64 -0.07,-1.35 -0.44,-2.13 -0.57,-1.2 -1.66,-2.54 -3.27,-4.01 -0.07,-0.06 -0.13,-0.13 -0.18,-0.21 -1.02,-1.43 -1.69,-3.21 -2.03,-5.34 -0.33,-2.08 -0.33,-4.5 0,-7.25l0 0c0.07,-0.83 0.03,-1.55 -0.13,-2.15 -0.21,-0.81 -0.65,-1.44 -1.3,-1.89 -0.71,-0.49 -1.69,-0.79 -2.95,-0.9 -1.94,-0.17 -4.45,0.11 -7.53,0.84 0.87,1.15 1.77,2.29 2.66,3.42 1.18,1.51 2.35,2.99 3.48,4.54 1.12,1.52 1.88,3.58 2.38,6.16 0.48,2.49 0.71,5.48 0.78,8.94l0.02 1.2zm1.91 4.21c-1.19,-0.55 -2.41,-1.61 -3.67,-3.18 -0.16,-0.17 -0.25,-0.4 -0.26,-0.65l-0.03 -1.55c-0.06,-3.33 -0.28,-6.2 -0.74,-8.59 -0.44,-2.28 -1.09,-4.08 -2.02,-5.34 -1.07,-1.46 -2.25,-2.96 -3.45,-4.48 -1.18,-1.51 -2.38,-3.04 -3.59,-4.67 -0.08,-0.11 -0.14,-0.23 -0.18,-0.37 -0.14,-0.54 0.18,-1.09 0.72,-1.24 4.01,-1.06 7.24,-1.48 9.69,-1.26 1.61,0.14 2.92,0.56 3.93,1.25 1.07,0.73 1.77,1.75 2.11,3.04 0.22,0.84 0.29,1.79 0.2,2.85l-0.01 0 0 0.03c-0.31,2.59 -0.32,4.83 -0.02,6.73 0.28,1.79 0.83,3.26 1.65,4.43 1.76,1.62 2.99,3.15 3.66,4.58 0.54,1.13 0.75,2.2 0.62,3.23 -0.12,1.05 -0.59,2.02 -1.39,2.9 -0.78,0.86 -1.9,1.63 -3.35,2.32l0 0c-1.22,0.6 -2.49,0.6 -3.82,0 -0.02,-0.01 -0.03,-0.02 -0.05,-0.03z"/>
   <path class="fil3" d="M227.58 206.21c-0.69,-0.31 -1.31,-0.67 -1.84,-1.08 -0.83,-0.62 -1.46,-1.37 -1.86,-2.26 -0.57,-1.26 -0.81,-2.39 -0.72,-3.39 0.07,-0.8 0.35,-1.51 0.81,-2.11 0.44,-0.57 1.04,-1.03 1.8,-1.37 1.54,-0.7 3.85,-0.92 6.89,-0.64l0.43 0.03 0.34 0.26c2.33,1.73 5.49,3.38 9.49,4.94 4.04,1.58 8.91,3.07 14.6,4.46 5.26,0.56 10.74,0.69 16.42,0.83 4.33,0.1 8.79,0.2 13.27,0.49 4.19,0.28 8.37,1.79 12.56,4.24 4.09,2.4 8.19,5.7 12.32,9.63 2.94,2.79 5.65,7.28 9.1,13.01 1.23,2.04 -0.5,-0.82 1.1,1.82 2.07,3.42 4.53,6.55 6.91,9.59 1.19,1.5 2.36,2.99 3.5,4.55 1.17,1.58 1.96,3.72 2.47,6.37 0.48,2.51 0.72,5.53 0.78,9.02 0.31,16.26 0.54,24.44 0.54,24.46l0 0.09c-0.44,13.66 -4.48,25.53 -12.2,35.43 -7.58,9.73 -18.7,17.53 -33.41,23.21 -2.2,0.85 -4.39,1.31 -6.53,1.58 -2.05,0.26 -4.1,0.33 -6.06,0.4l-0.1 0c1.2,3.36 0.09,6.5 -3.23,9.55 -2.72,2.51 -5.79,4.24 -9.32,5.44 -3.46,1.18 -7.33,1.83 -11.74,2.22 -0.8,0.07 -1.28,0.25 -1.46,0.48 0.01,0.02 0.03,0.04 0.06,0.08 0.39,0.48 1.36,0.89 2.96,0.97 2.92,0.16 5.39,0.22 7.5,0.26 6.41,0.15 9.92,0.23 10.81,2.94l0.59 1.8 -1.58 0.16c0.82,0.49 1.56,1.12 2.23,1.88l2.1 2.38 -3.18 0.14c-1.11,0.05 -2.06,0.13 -2.85,0.23 0.21,0.37 0.38,0.74 0.51,1.12 0.4,1.13 0.43,2.25 0.11,3.35l-0.28 0.93 -0.96 0.14c-39.03,5.9 -49.96,-0.37 -32.8,-18.81l0.03 -0.03c1.72,-1.76 3.87,-3.43 6.44,-5.02 0.65,-0.4 1.32,-0.79 2.02,-1.18 -6.37,0.12 -12.01,-0.25 -16.89,-1.13 -6.61,-1.2 -11.86,-3.31 -15.76,-6.35 -7.74,-0.05 -15.07,-0.65 -21.98,-1.81 -7.09,-1.19 -13.77,-2.97 -20.02,-5.34l0 0c-2.87,-1.06 -5.47,-2.14 -7.8,-3.24l0 0c-2.35,-1.1 -4.41,-2.22 -6.2,-3.36l-0.05 -0.03c-2.38,-1.62 -6.56,-2.28 -12.54,-1.89 -6.05,0.4 -13.83,1.88 -23.3,4.52 -7.95,2.22 -14.84,6.14 -20.68,11.67 -5.94,5.63 -10.81,12.95 -14.62,21.88l-2.4 5.61 -0.52 -6.08c-0.64,-7.52 -0.41,-13.59 0.71,-18.19 1.08,-4.44 2.98,-7.57 5.71,-9.39l-0.24 -6.37 -0.06 -1.58 1.58 0 3.65 0 1.33 -5.3 0.27 -1.1 1.15 -0.05 5.83 -0.22 1.88 -8.02 0.29 -1.22 1.26 0.05 5.35 0.23 4.36 -6.3 0.48 -0.69 0.84 0.04 10.56 0.5 4.89 -5.62 0.52 -0.59 0.76 0.06 14.96 1.29 5.43 -4.68 0.72 -0.62 0.87 0.37 10.3 4.38c10.7,-2.41 21.64,-3.16 32.82,-2.27 11.28,0.9 22.81,3.48 34.59,7.74 0.91,0.08 1.67,-0.04 2.34,-0.27 0.77,-0.27 1.47,-0.69 2.16,-1.13 2.57,-1.64 5.68,-2.56 9.21,-2.75 3.43,-0.19 7.27,0.3 11.39,1.5 0.43,0.12 0.71,0.12 0.93,-0.02 0.42,-0.26 0.93,-0.9 1.64,-1.9 1.55,-2.16 3.6,-3.78 5.99,-5 2.22,-1.12 4.74,-1.89 7.42,-2.4 5.97,-4.22 10.19,-8.65 12.67,-13.31 1.39,-2.62 2.23,-5.31 2.5,-8.09 -1.58,3.1 -3.26,5.21 -5.07,6.35 -3.22,2.02 -6.58,1.22 -10.16,-2.34 -2.37,-2.34 -4.1,-4.75 -5.16,-7.3 -1.09,-2.61 -1.48,-5.34 -1.13,-8.27 0.14,-1.21 -0.1,-2.04 -0.7,-2.51 -0.76,-0.61 -2.1,-0.89 -3.98,-0.9 -2.5,-0.02 -4.66,-0.8 -6.48,-2.26 -1.82,-1.45 -3.26,-3.56 -4.34,-6.22l-0.48 -1.21 1.11 -0.67 0.04 -0.02 -4.15 -0.85 5.58 -1.76c0.28,-0.09 0.56,-0.16 0.84,-0.23l-2.26 -0.99 3.94 -0.4 -0.21 -0.07 6.68 -0.92c2.02,-0.28 3.76,-0.09 5.21,0.57 1.44,0.65 2.55,1.72 3.35,3.22 2.87,2.52 4.88,5.31 6.15,8.35 0.61,1.46 1.05,2.97 1.32,4.54 0.45,-5.38 1.51,-9.55 3.59,-12.53 1.53,-2.19 3.55,-3.7 6.23,-4.54 -1.91,-1.47 -3.37,-3 -4.37,-4.59 -1.07,-1.69 -1.62,-3.44 -1.68,-5.24 -3.72,1.45 -7.28,2.32 -10.46,2.37 -3.64,0.04 -6.79,-0.98 -9.15,-3.44 -1.4,-1.44 -5.06,-3.37 -11.58,-5.47 -5.42,-1.74 -12.74,-3.55 -22.28,-5.24l-0.12 -0.03c-2.13,-0.55 -3.72,-1.32 -4.74,-2.3 -0.66,-0.63 -1.09,-1.33 -1.31,-2.11 -0.22,-0.78 -0.22,-1.61 0.01,-2.49 0.37,-1.44 1.39,-3.03 3.04,-4.76l1.08 -1.13 1.1 1.1 1.24 1.24 1.81 -0.54 0.95 -0.29 0.64 0.76 0.95 1.1 3.07 -1.02 1.08 -0.36 0.65 0.94 0.79 1.16 1.97 -0.77 1.08 -0.42 0.69 0.92 1.31 1.75 2.55 -1.04 1.38 -0.56 0.59 1.38 0.4 0.92 3.27 -0.1 0.86 -0.02 0.46 0.72 0.64 0.98 1.92 -0.43 0.82 -0.19 0.59 0.59 2.73 2.73c2.23,0.83 3.49,1.07 3.8,0.7 0.33,-0.39 -0.01,-1.64 -1.01,-3.75l-1.88 -0.49 -0.95 -0.25 -0.16 -0.97 -0.14 -0.81 -2.3 0.56 -1.63 0.39 -0.24 -1.65 -0.15 -1.03 -1.5 0.5 -1.32 0.45 -0.55 -1.29 -0.73 -1.7 -2.44 0.45 -0.99 0.18 -0.55 -0.83 -1.34 -2.01 -3.86 0.65 -1.2 0.2 -0.46 -1.13 -0.85 -2.07 -3.74 -0.21 -1.03 -0.06 -0.33 -0.99 -0.4 -1.19 -2.9 0.47 -1.36 0.22 -0.35 -1.34 -0.4 -1.56 -1.58 0.48 -1.7 0.52 -0.25 -1.76 -0.28 -1.96zm0 -3.49c0.51,0.38 1.15,0.71 1.91,0.99l0.85 0.32 0.13 0.89 0.15 1.07 1.4 -0.42 1.51 -0.46 0.4 1.53 0.46 1.75 2.81 -0.45 1.26 -0.21 0.41 1.23 0.48 1.44 3.68 0.21 0.96 0.05 0.36 0.9 0.75 1.83 3.64 -0.61 0.98 -0.16 0.54 0.81 1.33 1.99 2.64 -0.49 1.2 -0.22 0.48 1.12 0.65 1.54 1.91 -0.63 1.72 -0.58 0.26 1.8 0.17 1.17 2.27 -0.55 1.59 -0.38 0.27 1.61 0.24 1.45 1.6 0.42 0.67 0.18 0.31 0.61c1.82,3.66 2.12,6.21 0.91,7.66 -1.25,1.5 -3.76,1.53 -7.52,0.09l-0.31 -0.12 -0.23 -0.22 -2.37 -2.37 -2.13 0.49 -1.04 0.23 -0.58 -0.9 -0.74 -1.15 -3.45 0.1 -1.03 0.04 -0.41 -0.96 -0.21 -0.5 -2.25 0.91 -1.08 0.44 -0.71 -0.94 -1.32 -1.76 -2.02 0.79 -1.12 0.44 -0.68 -0.99 -0.84 -1.22 -2.95 0.99 -0.97 0.32 -0.66 -0.78 -0.97 -1.12 -1.74 0.52 -0.88 0.26 -0.64 -0.64 -0.74 -0.74c-0.67,0.85 -1.09,1.6 -1.26,2.25 -0.09,0.35 -0.1,0.65 -0.02,0.91 0.07,0.25 0.23,0.5 0.47,0.74 0.63,0.6 1.73,1.1 3.31,1.52 9.64,1.71 17.11,3.56 22.67,5.35 7.04,2.26 11.14,4.5 12.84,6.26 1.73,1.79 4.11,2.54 6.92,2.5 3.42,-0.05 7.43,-1.23 11.67,-3.11l2.82 -1.25 -0.73 3c-0.48,1.96 -0.15,3.84 0.99,5.65 1.24,1.97 3.41,3.88 6.51,5.73l4.13 2.45 -4.79 0.37c-3.67,0.28 -6.16,1.6 -7.79,3.94 -1.74,2.49 -2.64,6.19 -3.04,11.07 -0.31,3.7 -1.1,6.11 -1.81,7.2 -0.35,0.54 -0.76,0.9 -1.19,1.08 -0.87,0.35 -1.61,0.15 -2.19,-0.61 -0.37,-0.5 -0.58,-1.34 -0.54,-2.48 0.13,-3.19 -0.31,-6.14 -1.44,-8.84 -1.12,-2.69 -2.94,-5.17 -5.56,-7.43l-0.24 -0.2 -0.14 -0.28c-0.43,-0.89 -1.02,-1.54 -1.76,-1.94l2.46 4.39 -4.96 -3.03c-0.22,-0.13 -0.44,-0.25 -0.68,-0.36l4.32 3.82 -7.1 -2.37c-0.91,-0.31 -1.77,-0.52 -2.59,-0.63 0.05,0.09 0.1,0.19 0.15,0.29l1.46 3.11 -3.28 -1.01c-0.57,-0.18 -1.09,-0.25 -1.58,-0.22 0.77,1.49 1.68,2.67 2.74,3.52 1.28,1.03 2.82,1.58 4.6,1.59 2.58,0.02 4.54,0.51 5.86,1.55 1.48,1.18 2.11,2.9 1.83,5.25 -0.28,2.4 0.03,4.63 0.92,6.75 0.9,2.17 2.41,4.26 4.49,6.32 2.44,2.42 4.56,3.07 6.41,1.91 2.23,-1.4 4.35,-5.05 6.41,-11.01l1.84 -5.31 1.09 5.51c1.14,5.8 0.32,11.32 -2.47,16.56 -2.73,5.14 -7.36,9.99 -13.89,14.56l-0.27 0.19 -0.33 0.06c-2.52,0.46 -4.88,1.15 -6.92,2.19 -1.96,0.99 -3.63,2.31 -4.88,4.06 -0.93,1.3 -1.66,2.16 -2.5,2.69 -1.05,0.66 -2.06,0.75 -3.4,0.37 -3.77,-1.1 -7.27,-1.56 -10.38,-1.39 -3,0.17 -5.62,0.93 -7.74,2.28 -0.87,0.56 -1.76,1.09 -2.8,1.45 -1.1,0.38 -2.33,0.56 -3.82,0.4l-0.18 -0.02 -0.18 -0.06c-11.58,-4.2 -22.9,-6.74 -33.98,-7.63 -11.05,-0.88 -21.85,-0.12 -32.38,2.3l-0.48 0.11 -0.46 -0.19 -9.88 -4.2 -5.2 4.49 -0.49 0.42 -0.63 -0.06 -14.83 -1.27 -4.87 5.59 -0.48 0.56 -0.74 -0.04 -10.45 -0.49 -4.36 6.29 -0.48 0.69 -0.84 -0.03 -4.92 -0.22 -1.86 7.92 -0.27 1.13 -1.16 0.04 -5.85 0.23 -1.33 5.34 -0.29 1.16 -1.19 0 -3.26 0 0.21 5.68 0.03 0.94 -0.83 0.45c-2.38,1.29 -4.06,3.94 -5.03,7.93 -0.73,3.02 -1.05,6.76 -0.95,11.25 3.53,-6.87 7.77,-12.67 12.74,-17.38 6.2,-5.88 13.51,-10.04 21.96,-12.4 9.68,-2.7 17.67,-4.22 23.92,-4.62 6.67,-0.44 11.5,0.4 14.45,2.41l0 0c1.67,1.06 3.61,2.11 5.82,3.15l0 0c2.24,1.05 4.76,2.1 7.56,3.13l0.01 0.01c6.07,2.3 12.56,4.03 19.46,5.19 6.94,1.16 14.28,1.75 22.02,1.77l0.55 0 0.41 0.34c3.54,2.9 8.48,4.92 14.8,6.06 6.45,1.16 14.34,1.4 23.66,0.73l9.3 -0.68 -8.61 3.6c-3.23,1.35 -6.03,2.76 -8.42,4.23 -2.34,1.45 -4.29,2.97 -5.84,4.54l0 0c-13.04,14.02 -3.39,18.65 28.96,13.9 -0.02,-0.19 -0.06,-0.39 -0.13,-0.58 -0.22,-0.63 -0.67,-1.3 -1.34,-2.02l-1.41 -1.51 1.86 -0.9c0.39,-0.19 0.89,-0.35 1.5,-0.48 -0.38,-0.1 -0.77,-0.16 -1.18,-0.2l-2.1 -0.2 0.85 -1.92c0.2,-0.47 0.53,-0.88 0.98,-1.22 -1.27,-0.08 -2.93,-0.11 -4.98,-0.16 -2.19,-0.05 -4.75,-0.11 -7.6,-0.26 -2.56,-0.14 -4.29,-1.02 -5.16,-2.09 -0.44,-0.56 -0.69,-1.17 -0.74,-1.79 -0.06,-0.66 0.11,-1.31 0.51,-1.89 0.64,-0.95 1.9,-1.68 3.73,-1.84 4.19,-0.36 7.83,-0.98 11.03,-2.06 3.12,-1.07 5.84,-2.59 8.23,-4.8 2.49,-2.29 3.26,-4.52 2.22,-6.8 -1.21,-2.66 -4.6,-5.54 -10.27,-8.77l-3.66 -2.09 4.15 -0.73c3.43,-0.61 6.37,-0.14 8.81,1.42 2.16,1.38 3.86,3.57 5.11,6.58 1.52,-0.06 3.09,-0.14 4.72,-0.35 1.94,-0.24 3.89,-0.65 5.81,-1.39 14.18,-5.48 24.86,-12.94 32.11,-22.24 7.3,-9.37 11.13,-20.63 11.55,-33.62 -0.02,-0.68 -0.24,-8.76 -0.53,-24.44 -0.07,-3.3 -0.29,-6.14 -0.74,-8.5 -0.43,-2.21 -1.05,-3.94 -1.93,-5.14 -1.06,-1.45 -2.24,-2.95 -3.44,-4.47 -2.42,-3.08 -4.91,-6.25 -7.12,-9.9l-1.1 -1.82 0 0c0.09,0.16 0.16,0.28 0,0 -3.35,-5.54 -5.96,-9.88 -8.6,-12.38 -3.97,-3.78 -7.89,-6.94 -11.76,-9.21 -3.78,-2.22 -7.52,-3.58 -11.21,-3.82 -4.55,-0.29 -8.91,-0.4 -13.15,-0.5 -5.8,-0.13 -11.4,-0.26 -16.77,-0.85l-0.09 -0.01 -0.1 -0.02c-5.89,-1.44 -10.92,-2.97 -15.1,-4.61 -4.05,-1.58 -7.33,-3.27 -9.84,-5.07 -2.28,-0.18 -3.94,-0.03 -4.95,0.43 -0.3,0.13 -0.51,0.28 -0.64,0.45 -0.11,0.14 -0.17,0.31 -0.19,0.51 -0.04,0.47 0.11,1.1 0.46,1.88 0.19,0.41 0.5,0.77 0.93,1.1zm91.01 32.1c-0.28,-0.46 -0.13,-0.2 0,0l0 0zm-43.7 110.15c-0.7,-0.97 -1.49,-1.74 -2.37,-2.3 -0.34,-0.22 -0.7,-0.41 -1.07,-0.56 1.33,0.96 2.48,1.92 3.44,2.86z"/>
   <path class="fil0" d="M237.59 314.96c11.61,-11.12 18.02,-11.98 19.24,-2.55 -3.19,-0.73 -6.19,-1.01 -8.92,-0.86 -3.53,0.19 -6.64,1.11 -9.21,2.75 -0.36,0.24 -0.73,0.46 -1.11,0.66z"/>
   <path class="fil3" d="M236.91 314.21c5.95,-5.7 10.64,-8.78 14.06,-9.24 3.88,-0.51 6.17,1.92 6.86,7.31 0.07,0.55 -0.32,1.06 -0.87,1.13 -0.12,0.02 -0.24,0.01 -0.35,-0.01l0 0c-1.56,-0.36 -3.06,-0.6 -4.5,-0.74 -1.44,-0.14 -2.82,-0.18 -4.15,-0.1 -1.68,0.09 -3.27,0.36 -4.74,0.8 -1.45,0.43 -2.78,1.03 -3.97,1.8 -0.21,0.13 -0.41,0.25 -0.58,0.35 -0.21,0.13 -0.41,0.24 -0.61,0.35 -0.49,0.26 -1.11,0.07 -1.37,-0.43 -0.22,-0.42 -0.12,-0.92 0.22,-1.22zm14.33 -7.23c-2.02,0.27 -4.64,1.68 -7.86,4.23 1.4,-0.36 2.9,-0.59 4.47,-0.68 1.42,-0.07 2.91,-0.04 4.45,0.11 1.07,0.1 2.16,0.26 3.28,0.47 -0.68,-3.05 -2.13,-4.42 -4.34,-4.13z"/>
   <path class="fil2" d="M147.69 211.87c-0.05,17.75 -0.66,30.94 -1.85,39.58 0.25,9.12 -6.04,12.71 -16.7,6.44 -18.58,-10.93 -33.34,-27.76 -45.79,-46.69 -20.37,-7.49 -30.06,-28.64 -29.04,-63.44 7.66,8.52 16.6,15.97 26.81,22.34 0.48,-7.16 1,-12.45 1.56,-15.86 -6.63,-6.16 -11.09,-12.64 -13.4,-19.44 8.34,1.63 14.74,2.9 19.21,3.8 9.32,-16.75 22.12,-27.62 38.42,-32.61 0.78,-2.08 1.16,-3.11 1.16,-3.11 12.04,12.05 18.05,18.07 18.05,18.07 55.12,-7.46 88.01,-12.05 98.65,-13.77 -8.05,5.24 -12.86,9.46 -14.43,12.66 -5.96,9.42 1.17,11.03 21.38,4.81 8.52,0.91 18.66,-3.48 30.43,-13.17 28.77,-10.87 46.51,-18.49 53.23,-22.85 -12.88,13.16 -23.85,28.25 -32.89,45.28 4.6,19.51 10.03,33.28 16.31,41.33 -22.5,-5.43 -40.37,-14.6 -54.06,-27.03 -4.31,-3.92 -8.7,-5.66 -12.73,-5.59 -5.67,0.1 -11.92,-0.01 -18.77,-0.45 -1.69,4.46 -1.46,10.94 0.67,19.44 -17.56,-9.42 -24.71,-16.86 -21.44,-22.34 -36.78,-16.61 -60.31,-9.16 -70.59,22.34 3.07,1.49 5.6,3.06 7.59,4.69 -5.62,2.33 -10.17,4.04 -13.62,5.14 -1.73,8.32 -1.07,11.5 1.96,9.52 5.04,-1.38 9.97,-4.47 14.79,-9.3 -2.38,17.11 -4.02,30.51 -4.91,40.21z"/>
   <path class="fil0" d="M140.17 182.74c4.66,-1.62 8.88,-4.49 12.64,-8.61 1.74,12.94 1.47,24.59 -0.81,34.96 10.18,12.7 16.06,28.11 16.67,46.25 0.22,6.42 -6.91,7.41 -17.74,-0.01 -8,-5.47 -13.45,-10.38 -19.63,-12.63 -3.92,-1.43 -8.26,-4.7 -13.18,-9.41 11.7,17.54 25.39,22.09 27.72,18.16 0.09,7.01 -5.64,8.91 -15.62,2.81 -14.56,-8.91 -24.55,-23.22 -32.53,-39.79 -1.69,-3.5 -0.94,-6.6 2.96,-9.68 -5.04,3.09 -7.64,7.13 -7.8,12.1 -4.11,-3.68 -6.89,-7.09 -8.34,-10.22 -17.19,-4.86 -26.52,-22.6 -27.96,-53.24 6.6,8.9 15.02,16.42 25.27,22.58 0.83,3.8 2.53,7.21 5.11,10.22 -4.93,-11.86 -4.22,-26.38 2.15,-43.56 10.29,-20.3 23.01,-31.68 38.19,-34.15 -2.21,8.19 -6.7,16.84 -12.37,26.62 -4.77,8.23 -3.67,15.43 2.15,20.98 -3.68,-8.1 -3.29,-13.3 -1.62,-17.21 7.08,-16.5 10.04,-18.77 11.84,-5.65 0.04,-5.22 -0.8,-9.82 -1.08,-13.98 -0.27,-3.97 2.06,-6.05 2.69,-8.07 1.08,-3.44 -0.28,-6.38 -0.81,-8.33 3.46,1.22 6.33,6.12 9.15,14.52 3.9,11.63 2.47,29.04 -4.85,52.43 -2.03,5.64 -1.31,12.46 2.16,20.44 -2.14,-9.12 -2.48,-17.2 -1.01,-24.23 6.1,-19.25 7.33,-35.47 3.7,-48.64 -1.37,-4.26 -2.97,-7.82 -4.81,-10.69 18.05,-4.17 37.67,-2.85 58.85,3.96 21.43,-8.34 39.27,-9.51 53.51,-3.49 -10.56,3.99 -16.83,8.65 -18.82,13.98 12.07,1.02 23.64,2.81 34.68,5.38 6.82,-2.42 13.69,-7.74 21.52,-15.06 15.08,-14.11 33.11,-21.42 53.23,-22.85 -9.79,5.35 -21.8,19.6 -36.03,42.75 -10.75,1.61 -16.13,2.42 -16.13,2.42 10.4,2.15 15.6,3.22 15.6,3.22 2.91,13.69 7.13,24.62 12.63,32.81 -14.19,-3.83 -27.63,-9.43 -38.98,-18.55 -9.18,-7.37 -16.04,-11.49 -22.05,-11.3 -8.98,0.29 -16.42,-0.28 -22.32,-1.07 0.48,6.67 1.37,12.85 2.69,18.55 -13.93,-7.18 -22.98,-15.24 -27.16,-24.2 -22.3,-7.22 -40.72,-6.94 -50.82,5.11 -17.55,20.92 -19.16,41.36 -9.68,57.54 -1.91,-5.86 -2.89,-10.25 -2.96,-13.17z"/>
   <path class="fil0" d="M144.21 251.78l-0.23 -0.17c-4.79,-3.49 -8.77,-6.4 -13.03,-7.96 -2.05,-0.75 -4.2,-1.97 -6.46,-3.6 -0.28,-0.21 -0.57,-0.42 -0.86,-0.64 3.83,5.18 7.24,8.99 10.33,11.31 3.94,2.96 7.29,3.4 10.25,1.06z"/>
   <path class="fil2" d="M139.84 181.78c2.24,-0.78 4.38,-1.86 6.42,-3.24 2.04,-1.39 3.97,-3.09 5.8,-5.09l1.47 -1.61 0.28 2.16c0.88,6.52 1.25,12.72 1.11,18.6 -0.13,5.72 -0.74,11.14 -1.82,16.23 5.08,6.43 9.09,13.54 11.89,21.33 2.79,7.71 4.39,16.09 4.7,25.15 0.03,1.12 -0.13,2.11 -0.48,2.96 -0.59,1.44 -1.68,2.43 -3.21,2.93 -1.41,0.45 -3.18,0.47 -5.25,-0.01 -2.88,-0.66 -6.4,-2.29 -10.39,-5.02 -1.58,-1.08 -3.05,-2.13 -4.46,-3.15 -0.02,1.16 -0.18,2.18 -0.48,3.02 -0.51,1.46 -1.41,2.46 -2.71,2.96 -1.21,0.48 -2.73,0.49 -4.56,0.04 -2.27,-0.55 -5.08,-1.85 -8.45,-3.91 -7.4,-4.53 -13.63,-10.41 -19.01,-17.26 -5.36,-6.83 -9.89,-14.61 -13.92,-22.96 -0.71,-1.5 -1.04,-2.93 -0.92,-4.35l-0.08 0.12c-1.2,1.86 -1.84,3.94 -1.91,6.24l-0.07 2.17 -1.62 -1.45c-4.03,-3.61 -6.82,-6.98 -8.38,-10.12 -8.66,-2.58 -15.35,-8.35 -20.06,-17.33 -4.73,-9.01 -7.46,-21.25 -8.19,-36.72l-0.16 -3.32 1.98 2.67c3.26,4.4 6.97,8.46 11.13,12.17 4.17,3.72 8.78,7.11 13.85,10.16l0.38 0.22 0.1 0.43c0.19,0.88 0.42,1.73 0.71,2.56 -0.72,-3.77 -0.98,-7.76 -0.77,-11.97 0.36,-7.37 2.15,-15.39 5.37,-24.07l0.01 -0.03 0.04 -0.07c5.2,-10.27 11.03,-18.29 17.49,-24.07 6.51,-5.82 13.65,-9.36 21.43,-10.63l1.09 -0.17c-0.15,-1.17 -0.49,-2.23 -0.77,-3.13 -0.11,-0.35 -0.22,-0.68 -0.32,-1.08l-0.51 -1.86 1.82 0.64c1.6,0.56 3.07,1.79 4.44,3.65 8.92,-1.99 18.21,-2.66 27.88,-2.01 9.78,0.66 19.95,2.67 30.5,6.04 10.68,-4.13 20.49,-6.49 29.42,-7.07 9.07,-0.6 17.24,0.64 24.51,3.72l2.34 0.98 -2.37 0.9c-5.19,1.96 -9.32,4.08 -12.38,6.35 -2.47,1.84 -4.24,3.77 -5.3,5.79 5.54,0.5 11,1.16 16.38,2 5.72,0.88 11.3,1.96 16.74,3.21 3.23,-1.18 6.48,-3.03 9.85,-5.45 3.52,-2.53 7.16,-5.66 11.04,-9.29 7.52,-7.03 15.76,-12.4 24.63,-16.2 9.12,-3.92 18.9,-6.19 29.22,-6.93l4.64 -0.33 -4.08 2.23c-4.79,2.62 -10.14,7.45 -16.06,14.47 -5.97,7.07 -12.49,16.38 -19.59,27.93l-0.25 0.4 -0.47 0.07 -10.51 1.58 10.03 2.07 0.65 0.14 0.14 0.64c1.45,6.8 3.22,12.9 5.3,18.31 2.08,5.4 4.47,10.11 7.19,14.15l1.51 2.25 -2.62 -0.71c-7.14,-1.93 -14.11,-4.3 -20.72,-7.35 -6.62,-3.05 -12.89,-6.78 -18.64,-11.39 -4.54,-3.65 -8.5,-6.49 -12.05,-8.38 -3.46,-1.84 -6.51,-2.78 -9.33,-2.69 -4.53,0.14 -8.66,0.07 -12.4,-0.14 -3.23,-0.18 -6.18,-0.46 -8.85,-0.79 0.24,2.87 0.54,5.65 0.93,8.33 0.45,3.07 1,6.01 1.65,8.84l0.49 2.12 -1.95 -1c-7.04,-3.63 -12.85,-7.49 -17.44,-11.57 -4.49,-4.01 -7.82,-8.24 -9.98,-12.7 -11.28,-3.61 -21.52,-5.27 -30.13,-4.41 -7.95,0.8 -14.5,3.76 -19.18,9.34 -8.35,9.95 -13.04,19.78 -14.6,29.05 -0.86,5.09 -0.77,10.02 0.17,14.73l0 -0.04 -0.02 -0.74 0.7 -0.24zm-54.25 11.17c-1.4,2.94 -1.04,6.16 1.07,9.68 -8.14,-3.7 -12.85,-8.03 -17.74,-13.44 5.21,8.39 12.38,13.86 21.51,16.4 -3.53,-5.53 -5.14,-9.75 -4.84,-12.64zm188.52 -63.34c-2.8,1.06 -6.13,1.09 -9.99,0.11 5.8,-5.93 11.89,-10.41 18.27,-13.43 -6.96,5.89 -11.33,9.96 -13.12,12.21 1.58,0.7 3.19,1.07 4.84,1.11zm7.78 20.9c-6.7,-1.07 -13.63,-6.32 -20.8,-15.75 8.75,0.2 13.13,0.3 13.13,0.3 -3.99,0.95 -6.45,1.79 -7.37,2.53 3.74,5.22 8.75,9.52 15.04,12.92zm-154.83 19.07c3.11,-5.13 5.1,-10.24 5.95,-15.34 0.26,6.02 -1.15,11.37 -4.24,16.05 -0.31,2.16 -0.28,3.88 0.11,5.15 -3.11,-3.03 -5.43,-7.57 -6.97,-13.63 1.88,4.3 3.6,6.89 5.15,7.77zm-25.79 45.96c-0.29,-0.6 -0.59,-1.14 -0.89,-1.61 0.63,-3.56 3.68,-6.61 9.14,-9.14 -4.25,3.52 -6.99,7.11 -8.25,10.75zm2.57 6.29c-0.49,-1.62 -0.74,-2.42 -0.74,-2.42 3.62,-5.36 7.12,-8.72 10.49,-10.08 -4.19,4.38 -7.43,8.55 -9.75,12.5zm-2.02 -5.38c0.54,1.43 0.81,2.15 0.81,2.15 1.24,-2.67 4.24,-6.5 9.01,-11.49 -3.68,1.27 -6.95,4.38 -9.82,9.34zm35.53 16.03c1.26,0 2.28,1.38 2.28,3.09 0,1.71 -1.02,3.1 -2.28,3.1 -1.26,0 -2.29,-1.39 -2.29,-3.1 0,-1.71 1.03,-3.09 2.29,-3.09zm99.03 -122.66c-3.89,-0.46 -8.55,-0.49 -12.02,0.37 3.83,0.89 8,0.67 10.74,0.35 -1.31,0.75 -2.49,1.52 -3.56,2.31 -3.29,2.45 -5.47,5.1 -6.54,7.96l-0.47 1.25 1.33 0.11c6.05,0.51 11.93,1.21 17.66,2.1 5.74,0.89 11.37,1.97 16.89,3.26l0.28 0.06 0.28 -0.09c3.5,-1.24 7.01,-3.23 10.63,-5.83 3.58,-2.57 7.29,-5.76 11.24,-9.45 7.34,-6.87 15.39,-12.1 24.04,-15.82 7.69,-3.3 15.85,-5.4 24.42,-6.38 -4.03,2.9 -8.38,7.12 -13.04,12.66 -5.98,7.09 -12.49,16.35 -19.52,27.76l-15.67 2.35 -5.62 0.85 5.57 1.15 14.94 3.09c1.45,6.63 3.2,12.62 5.26,17.97 1.76,4.57 3.74,8.66 5.95,12.29 -6.15,-1.76 -12.14,-3.89 -17.85,-6.52 -6.48,-2.99 -12.61,-6.63 -18.22,-11.13 -4.63,-3.72 -8.69,-6.63 -12.37,-8.59 -3.77,-2.01 -7.15,-3.03 -10.34,-2.93 -4.45,0.14 -8.53,0.07 -12.23,-0.13 -3.69,-0.21 -7,-0.54 -9.93,-0.94l-1.23 -0.16 0.09 1.24c0.24,3.35 0.58,6.59 1.03,9.71 0.35,2.35 0.75,4.64 1.21,6.86 -6.02,-3.25 -11.06,-6.68 -15.1,-10.28 -4.43,-3.94 -7.65,-8.09 -9.68,-12.44l-0.19 -0.4 -0.42 -0.13c-11.7,-3.79 -22.36,-5.54 -31.37,-4.63 -8.48,0.85 -15.49,4.04 -20.54,10.05 -8.59,10.24 -13.42,20.39 -15.04,30.01 -1.74,10.37 0.24,20.12 5.27,28.69l4.74 8.09 -2.91 -8.91c-0.94,-2.91 -1.66,-5.44 -2.14,-7.6 -0.4,-1.78 -0.64,-3.3 -0.73,-4.57 2.16,-0.81 4.22,-1.88 6.18,-3.22 1.62,-1.1 3.18,-2.39 4.67,-3.85 0.67,5.66 0.95,11.05 0.83,16.2 -0.13,5.74 -0.76,11.18 -1.89,16.31l-0.1 0.47 0.3 0.38c5.1,6.36 9.1,13.4 11.88,21.12 2.71,7.52 4.27,15.69 4.57,24.53 0.03,0.83 -0.08,1.55 -0.32,2.13 -0.36,0.86 -1.03,1.46 -1.97,1.77 -1.06,0.34 -2.46,0.34 -4.17,-0.06 -2.64,-0.61 -5.93,-2.13 -9.7,-4.72 -2.02,-1.38 -3.88,-2.73 -5.62,-4l0 -0.05 -0.03 0.03 -0.67 -0.49c-4.91,-3.59 -9,-6.58 -13.54,-8.23 -1.86,-0.68 -3.84,-1.82 -5.96,-3.35 -2.15,-1.56 -4.43,-3.52 -6.85,-5.84l-6.66 -6.37 5.11 7.66c5.9,8.86 10.98,11.45 15.46,14.83 4.06,3.05 5.78,3.59 11,5.8 -0.06,0.33 -0.13,0.63 -0.23,0.9 -0.31,0.87 -0.82,1.45 -1.54,1.73 -0.81,0.32 -1.92,0.31 -3.33,-0.03 -2.07,-0.51 -4.7,-1.73 -7.89,-3.68 -7.17,-4.39 -13.22,-10.11 -18.46,-16.79 -5.27,-6.7 -9.73,-14.36 -13.69,-22.59 -0.73,-1.52 -0.94,-2.93 -0.55,-4.27 0.4,-1.39 1.45,-2.77 3.22,-4.17l13.5 -10.67 -14.66 9.01c-2.64,1.63 -4.66,3.52 -6.05,5.67 -1.02,1.59 -1.7,3.31 -2.01,5.18 -3.2,-3.06 -5.4,-5.9 -6.62,-8.53l-0.19 -0.42 -0.45 -0.13c-8.32,-2.35 -14.74,-7.83 -19.27,-16.45 -4.26,-8.1 -6.85,-18.97 -7.77,-32.61 2.83,3.52 5.96,6.8 9.39,9.87 4.16,3.72 8.76,7.1 13.79,10.16 0.43,1.82 1.06,3.55 1.88,5.21 0.89,1.78 2.01,3.46 3.35,5.02l4.16 4.86 -2.45 -5.91c-2.41,-5.79 -3.44,-12.24 -3.09,-19.35 0.35,-7.14 2.1,-14.95 5.24,-23.43 5.08,-10.01 10.74,-17.81 17,-23.4 5.76,-5.16 12.04,-8.44 18.82,-9.84 -1.07,3.55 -2.56,7.19 -4.37,10.98 -2.09,4.36 -4.62,8.95 -7.45,13.84 -2.46,4.23 -3.43,8.23 -3.05,11.92 0.4,3.84 2.24,7.3 5.38,10.29l3.78 3.61 -2.16 -4.76c-1.78,-3.93 -2.58,-7.13 -2.72,-9.81 -0.15,-2.63 0.33,-4.76 1.12,-6.59 3.44,-8.03 5.82,-12.57 7.44,-13.43 0.93,-0.5 1.69,1.94 2.45,7.53l1.91 13.89 0.11 -14.02c0.03,-3.47 -0.32,-6.62 -0.64,-9.56 -0.18,-1.55 -0.34,-3.05 -0.44,-4.5 -0.16,-2.43 0.8,-4.12 1.61,-5.54 0.42,-0.75 0.81,-1.43 1.04,-2.16 0.76,-2.42 0.44,-4.57 -0.03,-6.35 0.58,0.55 1.14,1.23 1.71,2.05l0.03 0.05c0.55,0.86 1.06,1.74 1.54,2.64 0.98,1.94 1.95,4.3 2.9,7.08 1.46,4.76 2.13,9.82 2.23,14.98 0.03,1.85 -0.01,3.72 -0.11,5.58 -0.04,0.6 -0.09,1.19 -0.15,1.8 -0.7,7.63 -2.49,16.41 -5.4,26.35l-0.02 0.04 0 0.03 -0.01 0.02c-0.36,1.23 -0.74,2.48 -1.13,3.75l0 0c-1.06,2.96 -1.41,6.21 -1.03,9.75 0.37,3.51 1.44,7.3 3.22,11.39l4.48 10.31 -2.57 -10.95c-1.05,-4.5 -1.66,-8.73 -1.83,-12.7 -0.16,-3.93 0.11,-7.6 0.82,-11.02 2.73,-8.62 5.09,-18.65 5.64,-28.67 0.58,-8.14 -0.09,-14.99 -1.96,-20.57 -0.09,-0.24 -0.17,-0.47 -0.25,-0.71 -0.81,-2.64 -1.85,-5.19 -3.16,-7.63 -0.24,-0.47 -0.49,-0.92 -0.74,-1.34 8.5,-1.82 17.36,-2.42 26.56,-1.8 9.73,0.65 19.85,2.67 30.36,6.05l0.34 0.11 0.34 -0.13c5.49,-2.14 10.73,-3.8 15.74,-4.99 6.27,1.3 13.25,-0.23 13.25,-0.23 -3.03,-0.49 -6.84,-0.73 -10.22,-0.43 3.58,-0.73 7.04,-1.2 10.38,-1.42 7.77,-0.51 14.85,0.37 21.21,2.64 -2.04,0.85 -3.91,1.72 -5.61,2.63zm-92.17 141.96l-0.23 -0.17c-4.79,-3.49 -8.77,-6.4 -13.03,-7.96 -2.05,-0.75 -4.2,-1.97 -6.46,-3.6 -0.28,-0.21 -0.57,-0.42 -0.86,-0.64 3.83,5.18 7.24,6.35 10.33,8.66 3.94,2.97 6.53,4.38 10.25,3.71zm-15.95 -143.06l-0.01 0.07c-0.35,1.27 -0.75,2.56 -1.2,3.86 0.37,-0.63 0.7,-1.22 0.86,-1.74 0.23,-0.75 0.34,-1.48 0.35,-2.19zm-3.02 8.65c-0.6,1.42 -1.25,2.85 -1.94,4.3 -0.56,1.16 -1.14,2.32 -1.74,3.5 0.45,-0.5 0.88,-0.87 1.29,-1.09 1.12,-0.6 2.05,-0.46 2.83,0.41l-0.06 -0.56c-0.18,-1.59 -0.34,-3.11 -0.44,-4.58 -0.05,-0.72 -0.02,-1.37 0.06,-1.98zm-9.56 18.45c-2.16,3.79 -3.02,7.32 -2.69,10.54 0.11,1.04 0.34,2.05 0.7,3.04 -0.26,-1.21 -0.41,-2.34 -0.47,-3.4 -0.16,-2.98 0.39,-5.4 1.28,-7.49 0.41,-0.94 0.8,-1.84 1.18,-2.69z"/>
   <polygon class="fil4" points="195.93,99.89 202.66,99.89 199.3,82.43 "/>
   <path class="fil5" d="M197.14 98.98l4.31 0 -2.15 -11.21 -2.16 11.21zm5.52 1.83l-6.73 0 -1.2 0 0.2 -1.07 3.36 -17.47 1.01 -5.19 1 5.19 3.36 17.47 0.21 1.07 -1.21 0z"/>
   <polygon class="fil4" points="219.46,320.4 179.13,320.4 175.71,336.35 222.88,336.35 "/>
   <polygon class="fil6" points="222.88,336.35 222.14,332.9 211.09,325.99 199.3,332.9 187.5,325.99 176.45,332.9 175.71,336.35 "/>
   <polygon class="fil4" points="91.43,404.55 307.17,404.55 307.17,416.32 91.43,416.32 "/>
   <polygon class="fil4" points="103.19,392.78 295.4,392.78 295.4,404.55 103.19,404.55 "/>
   <polygon class="fil4" points="123.79,381.02 274.81,381.02 274.81,392.78 123.79,392.78 "/>
   <polygon class="fil4" points="175.71,314.7 222.88,314.7 222.88,320.4 175.71,320.4 "/>
   <polygon class="fil4" points="179.13,305.59 219.46,305.59 219.46,314.7 179.13,314.7 "/>
   <polygon class="fil4" points="211.02,109.38 216.5,305.59 182.09,305.59 187.57,109.38 199.3,96.13 "/>
   <path class="fil4" d="M206.09 129.13l2.72 176.46 -19.03 0 2.72 -176.45c0.25,-0.05 0.5,-0.07 0.75,-0.07 3.05,0 5.57,3.24 5.99,7.44l0.12 0c0.41,-4.2 2.93,-7.44 5.99,-7.44 0.24,0 0.49,0.02 0.74,0.06z"/>
   <path class="fil4" d="M142.03 381.02l114.53 0c-17.48,-7.38 -30.59,-24.2 -33.95,-44.67l-46.6 0 -0.04 0.05c-3.36,20.45 -16.47,37.25 -33.94,44.62z"/>
   <path class="fil4" d="M187.57 109.38l0 0c0.41,4.2 2.62,8.05 5.68,8.05 3.05,0 5.57,-3.24 5.99,-7.44l0.12 0c0.41,4.2 2.93,7.44 5.99,7.44 3.05,0 5.26,-3.85 5.67,-8.05l0 0 0.74 27.14 0 0c-0.41,-4.21 -3.36,-7.45 -6.41,-7.45 -3.06,0 -5.58,3.24 -5.99,7.44l-0.12 0c-0.42,-4.2 -2.94,-7.44 -5.99,-7.44 -3.06,0 -6.02,3.5 -6.43,7.7l0 0 0.75 -27.39z"/>
   <path class="fil5" d="M91.43 403.53l215.74 0c0.56,0 1.01,0.46 1.01,1.02l0 11.77c0,0.56 -0.45,1.01 -1.01,1.01l-215.74 0c-0.57,0 -1.02,-0.45 -1.02,-1.01l0 -11.77c0,-0.56 0.45,-1.02 1.02,-1.02zm214.72 2.04l-213.71 0 0 9.73 213.71 0 0 -9.73z"/>
   <path class="fil5" d="M103.19 391.77l192.21 0c0.56,0 1.01,0.45 1.01,1.01l0 11.77c0,0.56 -0.45,1.02 -1.01,1.02l-192.21 0c-0.56,0 -1.01,-0.46 -1.01,-1.02l0 -11.77c0,-0.56 0.45,-1.01 1.01,-1.01zm191.19 2.03l-190.17 0 0 9.73 190.17 0 0 -9.73z"/>
   <path class="fil5" d="M123.79 380l151.02 0c0.56,0 1.01,0.45 1.01,1.02l0 11.76c0,0.56 -0.45,1.02 -1.01,1.02l-151.02 0c-0.57,0 -1.02,-0.46 -1.02,-1.02l0 -11.76c0,-0.57 0.45,-1.02 1.02,-1.02zm150 2.03l-148.99 0 0 9.74 148.99 0 0 -9.74z"/>
   <path class="fil5" d="M175.71 313.69l47.17 0c0.56,0 1.02,0.45 1.02,1.01l0 5.7c0,0.56 -0.46,1.02 -1.02,1.02l-47.17 0c-0.56,0 -1.02,-0.46 -1.02,-1.02l0 -5.7c0,-0.56 0.46,-1.01 1.02,-1.01zm46.15 2.03l-45.13 0 0 3.66 45.13 0 0 -3.66z"/>
   <path class="fil5" d="M179.13 304.57l40.33 0c0.56,0 1.02,0.46 1.02,1.02l0 9.11c0,0.56 -0.46,1.02 -1.02,1.02l-40.33 0c-0.56,0 -1.02,-0.46 -1.02,-1.02l0 -9.11c0,-0.56 0.46,-1.02 1.02,-1.02zm39.32 2.03l-38.31 0 0 7.09 38.31 0 0 -7.09z"/>
   <path class="fil5" d="M212.04 109.35l5.47 196.21c0.02,0.56 -0.42,1.02 -0.98,1.04l-0.03 0 0 0 -34.41 0c-0.56,0 -1.02,-0.45 -1.02,-1.01 0,-0.04 0.01,-0.08 0.01,-0.12l5.48 -196.12c0,-0.25 0.1,-0.48 0.26,-0.65l11.72 -13.24c0.37,-0.42 1.01,-0.46 1.43,-0.09 0.03,0.03 0.06,0.06 0.09,0.1l11.72 13.24c0.17,0.18 0.25,0.41 0.26,0.64l0 0zm3.42 195.22l-5.44 -194.8 -10.72 -12.12 -10.73 12.12 -5.44 194.8 32.33 0z"/>
   <g>
    <path class="fil5" d="M207.1 129.18l2.72 176.4c0.01,0.55 -0.44,1.01 -1,1.02l-0.01 0 0 0 -19.03 0c-0.56,0 -1.02,-0.45 -1.02,-1.01 0,-0.04 0.01,-0.07 0.01,-0.11l2.72 -176.35c0.01,-0.5 0.37,-0.91 0.85,-0.99 0.15,-0.03 0.3,-0.05 0.45,-0.06 0.18,-0.02 0.33,-0.03 0.46,-0.03 1.84,0 3.5,0.95 4.75,2.5 0.5,0.63 0.94,1.36 1.3,2.16 0.35,-0.8 0.79,-1.53 1.29,-2.16 1.25,-1.55 2.92,-2.5 4.76,-2.5 0.14,0 0.29,0.01 0.45,0.02l0 0 0 0c0.14,0.02 0.29,0.04 0.45,0.06 0.52,0.09 0.87,0.54 0.85,1.05zm0.68 175.39l-2.69 -174.47c-1.1,0.08 -2.11,0.72 -2.92,1.72 -0.94,1.18 -1.6,2.83 -1.8,4.72 -0.01,0.55 -0.46,0.99 -1.01,0.99l-0.12 0 0 -0.01c-0.52,0.01 -0.96,-0.39 -1.01,-0.91 -0.19,-1.92 -0.85,-3.6 -1.81,-4.79 -0.81,-1 -1.82,-1.64 -2.92,-1.72l-2.69 174.47 16.97 0zm-15.44 -176.43c0.06,-0.01 0.12,-0.01 0.18,-0.01l-0.18 0.01z"/>
   </g>
   <path class="fil5" d="M146.54 380l105.51 0c-7.25,-3.82 -13.62,-9.28 -18.69,-15.95 -5.75,-7.57 -9.82,-16.69 -11.6,-26.68l-44.93 0c-1.78,10 -5.86,19.13 -11.62,26.7 -5.06,6.66 -11.42,12.12 -18.67,15.93zm110.02 2.03l-114.53 0 0 0c-0.4,0 -0.77,-0.23 -0.93,-0.62 -0.22,-0.52 0.02,-1.11 0.54,-1.33 8.63,-3.64 16.17,-9.62 21.96,-17.23 5.72,-7.52 9.73,-16.62 11.37,-26.61l0 0c0.03,-0.15 0.08,-0.3 0.18,-0.43 0.18,-0.28 0.5,-0.47 0.86,-0.47l46.6 0 0 0c0.49,0 0.92,0.35 1,0.85 1.64,10 5.65,19.11 11.37,26.64 5.77,7.6 13.29,13.58 21.9,17.22 0.4,0.13 0.7,0.51 0.7,0.97 0,0.56 -0.46,1.01 -1.02,1.01z"/>
   <g>
    <path class="fil5" d="M218.64 321.42l-38.69 0 -2.99 13.92 44.67 0 -2.99 -13.92zm-39.51 -2.04l40.33 0 0 0.01c0.47,0 0.89,0.32 1,0.8l3.4 15.89c0.02,0.09 0.04,0.18 0.04,0.27 0,0.56 -0.46,1.02 -1.02,1.02l-47.17 0 0 0c-0.07,0 -0.14,-0.01 -0.21,-0.02 -0.55,-0.12 -0.9,-0.66 -0.78,-1.21l3.4 -15.89 1.01 -0.87z"/>
   </g>
   <path class="fil5" d="M188.58 109.28c0.2,2.03 0.84,3.95 1.8,5.31 0.78,1.12 1.77,1.82 2.87,1.82 1.19,0 2.3,-0.65 3.17,-1.73 0.96,-1.19 1.62,-2.87 1.81,-4.79 0.05,-0.52 0.49,-0.92 1.01,-0.92l0 0 0.12 0c0.55,0 1,0.44 1.01,0.99 0.2,1.89 0.86,3.54 1.8,4.72 0.87,1.08 1.98,1.73 3.18,1.73 1.09,0 2.08,-0.7 2.86,-1.82 0.96,-1.36 1.61,-3.28 1.81,-5.31 0.05,-0.56 0.55,-0.96 1.1,-0.91 0.53,0.05 0.92,0.5 0.92,1.02l0.74 27.1c0.01,0.56 -0.43,1.03 -0.99,1.04 -0.54,0.01 -0.98,-0.39 -1.03,-0.91l0 0c-0.19,-1.86 -0.92,-3.51 -1.94,-4.69 -0.99,-1.15 -2.23,-1.84 -3.47,-1.84 -1.2,0 -2.31,0.65 -3.18,1.73 -0.96,1.19 -1.62,2.87 -1.81,4.79 -0.05,0.52 -0.49,0.92 -1,0.91l0 0.01 -0.12 0c-0.56,0 -1.01,-0.44 -1.02,-0.99 -0.2,-1.89 -0.86,-3.54 -1.8,-4.72 -0.87,-1.08 -1.98,-1.73 -3.17,-1.73 -1.22,0 -2.46,0.74 -3.44,1.92 -1.04,1.25 -1.8,2.97 -1.98,4.86 -0.06,0.56 -0.55,0.97 -1.11,0.91 -0.54,-0.05 -0.95,-0.53 -0.91,-1.07l0.75 -27.35c0.01,-0.56 0.47,-1.01 1.03,-0.99 0.52,0.01 0.94,0.41 0.99,0.91l0 0zm0.14 6.48c-0.1,-0.15 -0.2,-0.3 -0.3,-0.46l-0.43 15.74c0.09,-0.11 0.17,-0.22 0.26,-0.33 1.37,-1.63 3.15,-2.66 5,-2.66 1.84,0 3.5,0.95 4.75,2.5 0.5,0.63 0.94,1.36 1.3,2.16 0.35,-0.8 0.79,-1.53 1.29,-2.16 1.25,-1.55 2.92,-2.5 4.76,-2.5 1.84,0 3.64,0.97 5,2.56 0.09,0.09 0.17,0.19 0.25,0.29l-0.43 -15.6c-0.1,0.16 -0.2,0.31 -0.3,0.46 -1.16,1.64 -2.7,2.69 -4.52,2.69 -1.84,0 -3.51,-0.95 -4.76,-2.5 -0.5,-0.63 -0.94,-1.36 -1.29,-2.16 -0.36,0.8 -0.8,1.53 -1.3,2.16 -1.25,1.55 -2.91,2.5 -4.75,2.5 -1.83,0 -3.37,-1.05 -4.53,-2.69z"/>
   <circle class="fil4" cx="200.13" cy="403.92" r="50.81"/>
   <path class="fil2" d="M171.34 399.48c2.28,0.08 4.57,0.08 6.83,0.5 2.71,0.5 5.34,1.44 7.99,2.29 0.09,-0.29 0.25,-0.56 0.47,-0.79l14.19 -15.09c0.31,-0.32 0.69,-0.52 1.09,-0.6 -0.47,-2.15 -0.99,-4.31 -1.09,-6.46 -0.13,-2.56 0.19,-5.09 0.43,-7.61 -0.23,-0.02 -0.45,-0.08 -0.67,-0.17 -6.3,-2.81 -12.28,-4.34 -17.95,-4.6 -0.5,-0.02 -0.95,-0.22 -1.29,-0.54 -1.93,2.1 -3.79,4.26 -5.94,6.12 -2.57,2.21 -5.41,4.06 -8.18,6 0.2,0.28 0.33,0.62 0.37,0.99 0.65,7 1.87,13.43 3.66,19.28 0.07,0.23 0.1,0.46 0.09,0.68zm28.79 -47.9c14.46,0 27.54,5.86 37.01,15.33 9.47,9.48 15.33,22.56 15.33,37.01 0,14.46 -5.86,27.54 -15.33,37.01 -9.47,9.47 -22.55,15.33 -37.01,15.33 -14.45,0 -27.53,-5.86 -37,-15.33 -9.48,-9.47 -15.33,-22.55 -15.33,-37.01 0,-14.45 5.85,-27.53 15.33,-37.01 9.47,-9.47 22.55,-15.33 37,-15.33zm34.86 17.49c-3.78,-3.78 -8.16,-6.94 -13,-9.34 0.25,1.47 0.57,3.15 0.95,5.06 0.13,0.66 -0.08,1.31 -0.51,1.78 1.86,1.69 3.78,3.34 5.37,5.21 1.89,2.22 3.39,4.65 4.97,7.03 0.51,-0.35 1.18,-0.46 1.8,-0.25 2.74,0.95 5.12,1.95 7.17,3.03 1.22,0.63 2.31,1.29 3.29,1.97 -2.46,-5.43 -5.88,-10.33 -10.04,-14.49zm-17.39 -11.25c-5.43,-2.06 -11.32,-3.19 -17.47,-3.19 -6.66,0 -13.01,1.33 -18.8,3.72 0.35,1.52 0.64,3.07 0.95,4.6 0.17,-0.04 0.35,-0.05 0.53,-0.05 6.18,0.28 12.65,1.93 19.42,4.95 0.52,0.23 0.9,0.65 1.08,1.15 2.22,-0.85 4.42,-1.75 6.79,-2.3 2.86,-0.66 5.86,-0.92 8.82,-1.26 -0.6,-3.04 -1.04,-5.58 -1.32,-7.62zm-58.91 19.41c-4.96,7.69 -7.85,16.86 -7.85,26.69 0,2.63 0.21,5.2 0.61,7.72 0.63,1.27 1.25,2.55 1.89,3.81 0.18,-0.1 0.37,-0.16 0.58,-0.2 1.18,-0.21 2.41,-0.31 3.68,-0.31 1.24,-0.01 2.49,0.09 3.74,0.3 0.1,0.02 0.2,0.04 0.29,0.07 0.71,-2.32 1.35,-4.67 2.36,-6.84 1.2,-2.59 2.78,-4.94 4.27,-7.35 -0.41,-0.25 -0.73,-0.64 -0.88,-1.14 -1.87,-6.12 -3.15,-12.81 -3.83,-20.09 -0.03,-0.3 0.02,-0.6 0.11,-0.87 -1.67,-0.57 -3.36,-1.11 -4.97,-1.79zm-4.93 43.43c2.48,6.88 6.45,13.05 11.52,18.12 2.8,2.8 5.94,5.26 9.34,7.32 0.23,-0.11 0.46,-0.24 0.69,-0.36 -0.03,-0.06 -0.06,-0.12 -0.09,-0.18 -0.87,-2.02 -1.52,-4.2 -1.95,-6.52 -0.42,-2.29 -0.63,-4.72 -0.62,-7.29 0,-0.49 0.17,-0.94 0.46,-1.29 -1.88,-1.51 -3.79,-2.96 -5.45,-4.72 -2,-2.12 -3.67,-4.53 -5.42,-6.89 -0.43,0.33 -0.98,0.48 -1.55,0.39 -1.06,-0.17 -2.09,-0.26 -3.09,-0.25 -0.98,0 -1.98,0.09 -2.98,0.26 -0.23,0.04 -0.45,0.04 -0.66,0.01 -0.07,0.47 -0.13,0.93 -0.2,1.4zm56.92 31.42c7.79,-1.7 14.89,-5.24 20.82,-10.13 -1.82,0.72 -3.64,1.43 -5.44,1.9 -2.53,0.67 -5.01,0.97 -7.49,1.34 0.1,0.64 -0.11,1.31 -0.62,1.79 -2.12,2.01 -4.55,3.71 -7.27,5.1zm25.42 -14.46c4.88,-5.2 8.64,-11.47 10.91,-18.41 -1.18,2.01 -2.49,3.84 -3.94,5.49 -0.53,0.6 -1.34,0.81 -2.07,0.61 -0.56,2.06 -1.06,4.12 -1.9,6.18 -0.84,2.06 -1.92,4.1 -3,6.13zm-6.07 -19.85c1.69,0.41 3.39,0.79 4.9,1.48 1.79,0.8 3.34,1.91 4.92,2.99 0.05,-0.08 0.11,-0.16 0.17,-0.23 3.51,-3.98 6.12,-9.21 7.85,-15.68 0.19,-0.71 0.72,-1.23 1.38,-1.43 -0.75,-2.42 -1.56,-4.82 -2.07,-7.31 -0.61,-2.96 -0.9,-5.96 -1.26,-8.94 -0.56,0.07 -1.15,-0.1 -1.6,-0.5 -1.18,-1.04 -2.66,-2.04 -4.45,-2.98 -1.88,-0.98 -4.08,-1.9 -6.62,-2.78 -0.13,-0.05 -0.26,-0.11 -0.37,-0.18 -1.06,1.84 -2.06,3.69 -3.42,5.34 -1.64,1.99 -3.65,3.72 -5.59,5.5l0.04 0.04c4.29,4.83 6.35,12.9 6.18,24.19 0,0.17 -0.02,0.33 -0.06,0.49zm-14.33 25.9c-0.71,-1.42 -1.43,-2.83 -1.86,-4.42 -0.54,-1.99 -0.73,-4.15 -0.96,-6.29 -0.16,0.02 -0.33,0.02 -0.49,0 -10.13,-1.23 -17.59,-4.1 -22.37,-8.63 -0.09,-0.08 -0.17,-0.18 -0.25,-0.28 -1.84,1.37 -3.65,2.8 -5.67,3.87 -2.41,1.28 -4.99,2.15 -7.54,3.1 0.09,0.22 0.14,0.47 0.14,0.73 -0.01,2.32 0.18,4.5 0.56,6.55 0.37,2.02 0.93,3.91 1.69,5.67 0.2,0.46 0.21,0.95 0.07,1.39 3.59,1.09 7.22,2.08 10.7,3.42 2.93,1.13 5.67,2.57 8.46,3.95 0.26,-0.56 0.78,-0.98 1.43,-1.11 3.21,-0.65 6.12,-1.62 8.73,-2.89 2.56,-1.26 4.84,-2.82 6.83,-4.7 0.16,-0.15 0.34,-0.27 0.53,-0.36zm-1.68 -14.2c1.72,-1.86 3.4,-3.75 5.3,-5.43 2.26,-2.01 4.72,-3.76 7.13,-5.56 -0.26,-0.35 -0.41,-0.78 -0.41,-1.25 0.15,-10.24 -1.57,-17.39 -5.17,-21.44 -0.44,-0.5 -0.59,-1.16 -0.46,-1.77 -2.57,-0.53 -5.15,-0.98 -7.63,-1.8 -2.96,-0.99 -5.77,-2.35 -8.62,-3.63 -0.09,0.21 -0.22,0.41 -0.38,0.58l-14.2 15.09c-0.26,0.27 -0.57,0.46 -0.91,0.55 0.73,2.38 1.52,4.74 1.93,7.19 0.48,2.93 0.54,5.89 0.69,8.85 0.54,-0.04 1.09,0.15 1.51,0.55 4.12,3.89 10.81,6.41 20.06,7.53 0.45,0.05 0.85,0.25 1.16,0.54z"/>
   <path class="fil7" d="M18.39 22.79l20.52 0c4.47,0 7.82,1.06 10.05,3.18 2.22,2.13 3.34,5.16 3.34,9.1 0,4.03 -1.22,7.19 -3.65,9.46 -2.42,2.28 -6.13,3.41 -11.12,3.41l-6.76 0 0 14.78 -12.38 0 0 -39.93zm12.38 17.06l3.04 0c2.39,0 4.08,-0.42 5.04,-1.24 0.97,-0.83 1.45,-1.89 1.45,-3.18 0,-1.26 -0.42,-2.32 -1.26,-3.19 -0.84,-0.87 -2.42,-1.31 -4.74,-1.31l-3.53 0 0 8.92zm27.95 -17.06l33.02 0 0 8.53 -20.64 0 0 6.36 19.13 0 0 8.14 -19.13 0 0 7.86 21.25 0 0 9.04 -33.63 0 0 -39.93zm40.44 39.93l0 -39.93 20.56 0c3.82,0 6.73,0.32 8.74,0.98 2.02,0.65 3.65,1.87 4.88,3.64 1.24,1.77 1.85,3.94 1.85,6.48 0,2.22 -0.47,4.13 -1.42,5.74 -0.94,1.62 -2.24,2.92 -3.9,3.92 -1.06,0.63 -2.51,1.16 -4.34,1.58 1.47,0.49 2.54,0.98 3.21,1.47 0.45,0.33 1.11,1.03 1.97,2.1 0.86,1.07 1.43,1.9 1.72,2.48l6 11.54 -13.95 0 -6.59 -12.18c-0.83,-1.58 -1.58,-2.6 -2.23,-3.07 -0.89,-0.62 -1.9,-0.92 -3.03,-0.92l-1.09 0 0 16.17 -12.38 0zm12.38 -23.7l5.22 0c0.56,0 1.65,-0.19 3.27,-0.55 0.82,-0.16 1.49,-0.58 2,-1.26 0.52,-0.68 0.78,-1.45 0.78,-2.32 0,-1.29 -0.41,-2.29 -1.23,-2.98 -0.81,-0.69 -2.35,-1.04 -4.61,-1.04l-5.43 0 0 8.15zm28.72 10.49l11.71 -0.73c0.25,1.89 0.77,3.34 1.55,4.33 1.28,1.61 3.09,2.41 5.45,2.41 1.76,0 3.11,-0.4 4.06,-1.23 0.96,-0.83 1.43,-1.79 1.43,-2.87 0,-1.04 -0.44,-1.96 -1.34,-2.78 -0.91,-0.82 -3.01,-1.58 -6.31,-2.32 -5.41,-1.21 -9.26,-2.82 -11.56,-4.84 -2.32,-2.01 -3.49,-4.57 -3.49,-7.7 0,-2.04 0.6,-3.98 1.79,-5.8 1.19,-1.83 2.97,-3.26 5.36,-4.3 2.39,-1.04 5.66,-1.56 9.82,-1.56 5.1,0 8.99,0.95 11.66,2.85 2.68,1.9 4.27,4.92 4.78,9.06l-11.6 0.69c-0.31,-1.81 -0.96,-3.13 -1.94,-3.95 -1,-0.83 -2.36,-1.24 -4.1,-1.24 -1.43,0 -2.52,0.31 -3.24,0.92 -0.73,0.6 -1.09,1.34 -1.09,2.22 0,0.63 0.29,1.2 0.88,1.71 0.57,0.53 1.94,1.01 4.12,1.47 5.39,1.16 9.25,2.34 11.57,3.53 2.33,1.19 4.04,2.66 5.1,4.42 1.06,1.76 1.58,3.73 1.58,5.92 0,2.55 -0.7,4.91 -2.12,7.08 -1.42,2.15 -3.39,3.8 -5.94,4.92 -2.53,1.11 -5.73,1.67 -9.6,1.67 -6.78,0 -11.49,-1.31 -14.1,-3.92 -2.61,-2.62 -4.09,-5.93 -4.43,-9.96zm42.39 -26.72l33.02 0 0 8.53 -20.63 0 0 6.36 19.13 0 0 8.14 -19.13 0 0 7.86 21.25 0 0 9.04 -33.64 0 0 -39.93zm40.34 0l23.12 0c3.84,0 6.8,0.95 8.86,2.86 2.07,1.91 3.1,4.27 3.1,7.08 0,2.36 -0.74,4.39 -2.21,6.07 -0.98,1.14 -2.42,2.02 -4.31,2.68 2.87,0.69 4.98,1.87 6.33,3.55 1.35,1.68 2.03,3.79 2.03,6.33 0,2.07 -0.48,3.93 -1.44,5.59 -0.97,1.65 -2.29,2.95 -3.95,3.92 -1.04,0.59 -2.6,1.03 -4.7,1.3 -2.78,0.36 -4.62,0.55 -5.53,0.55l-21.3 0 0 -39.93zm12.43 15.67l5.39 0c1.92,0 3.27,-0.34 4.02,-1 0.75,-0.67 1.14,-1.62 1.14,-2.88 0,-1.16 -0.39,-2.07 -1.14,-2.72 -0.75,-0.66 -2.07,-0.99 -3.94,-0.99l-5.47 0 0 7.59zm0 15.67l6.3 0c2.13,0 3.62,-0.38 4.5,-1.13 0.87,-0.76 1.31,-1.76 1.31,-3.03 0,-1.18 -0.43,-2.13 -1.29,-2.85 -0.87,-0.71 -2.38,-1.08 -4.55,-1.08l-6.27 0 0 8.09zm54.5 2.01l-13.98 0 -2 6.58 -12.6 0 15.03 -39.93 13.51 0 14.96 39.93 -12.92 0 -2 -6.58zm-2.61 -8.65l-4.36 -14.35 -4.38 14.35 8.74 0zm12.67 -24.7l13.7 0 8.08 13.44 8.04 -13.44 13.63 0 -15.51 23.21 0 16.72 -12.38 0 0 -16.72 -15.56 -23.21zm66.72 33.35l-13.99 0 -2 6.58 -12.6 0 15.03 -39.93 13.51 0 14.96 39.93 -12.92 0 -1.99 -6.58zm-2.62 -8.65l-4.36 -14.35 -4.37 14.35 8.73 0z"/>
   <path class="fil5" d="M198.34 137.53c0,-0.56 0.46,-1.01 1.02,-1.01 0.55,0 1.01,0.45 1.01,1.01l-0.06 167.04c0,0.56 -0.46,1.01 -1.01,1.01 -0.56,0 -1.02,-0.45 -1.02,-1.01l0.06 -167.04z"/>
  </g>
 </g>
</svg>
